<svg width="24" height="24" viewBox="0 0 24 24" fill="none" xmlns="http://www.w3.org/2000/svg">
<path fill-rule="evenodd" clip-rule="evenodd" d="M13.0756 15.2271C13.0756 15.821 12.5942 16.3025 12.0002 16.3025C11.4063 16.3025 10.9248 15.821 10.9248 15.2271C10.9248 14.6331 11.4063 14.1516 12.0002 14.1516C12.5942 14.1516 13.0756 14.6331 13.0756 15.2271ZM10.8397 9.94188C10.9262 9.76871 11.0435 9.62008 11.2042 9.51293C11.3598 9.40916 11.6037 9.31233 12.0002 9.31233C12.3011 9.31233 12.5948 9.40541 12.7933 9.55429C12.9703 9.68702 13.0756 9.86088 13.0756 10.1189C13.0756 10.3088 13.0317 10.4026 12.9926 10.4612C12.9439 10.5344 12.8597 10.6153 12.6954 10.7249C12.6133 10.7796 12.5249 10.8328 12.417 10.8976L12.4104 10.9015C12.3096 10.962 12.1906 11.0334 12.0737 11.1114C11.8347 11.2707 11.5492 11.4923 11.3291 11.8225C11.082 12.1931 11.1822 12.6939 11.5529 12.9409C11.9235 13.188 12.4243 13.0878 12.6713 12.7172C12.7201 12.644 12.8043 12.5631 12.9685 12.4535C13.0507 12.3987 13.1391 12.3455 13.247 12.2808L13.2536 12.2768C13.3544 12.2163 13.4734 12.1449 13.5902 12.067C13.8292 11.9077 14.1148 11.6861 14.3348 11.356C14.5646 11.0114 14.6887 10.6011 14.6887 10.1189C14.6887 9.30148 14.3012 8.66878 13.7612 8.26381C13.2428 7.87498 12.5955 7.69922 12.0002 7.69922C11.3214 7.69922 10.7586 7.87124 10.3094 8.17074C9.86518 8.46688 9.57911 8.85595 9.39686 9.22048C9.19764 9.61889 9.35913 10.1034 9.75756 10.3026C10.156 10.5018 10.6405 10.3403 10.8397 9.94188Z" fill="white" fill-opacity="0.2"/>
<circle cx="11.9999" cy="11.9999" r="7.682" stroke="white" stroke-opacity="0.2" stroke-width="1.15919"/>
</svg>
