<svg width="24" height="24" viewBox="0 0 24 24" fill="none" xmlns="http://www.w3.org/2000/svg">
<path fill-rule="evenodd" clip-rule="evenodd" d="M5.37501 18.2703L5.48303 16.5949L4.76108 15.3444L3.25621 14.6003C3.15936 14.5533 3.07405 14.4856 3.00636 14.4019C2.93867 14.3182 2.89027 14.2206 2.86461 14.1161C2.53081 12.7243 2.53081 11.2734 2.86459 9.8817C2.89026 9.77716 2.93866 9.67957 3.00635 9.59587C3.07404 9.51217 3.15935 9.44443 3.25621 9.39746L4.76113 8.65332L5.48308 7.40286L5.37509 5.72754C5.36733 5.62018 5.38335 5.51243 5.42199 5.41196C5.46063 5.31149 5.52095 5.22078 5.59865 5.14628C6.63701 4.16135 7.89355 3.43588 9.2657 3.02908C9.36907 2.99905 9.47779 2.99217 9.58412 3.00894C9.69045 3.02572 9.79177 3.06572 9.88087 3.12612L11.2778 4.05735H12.7217L14.1186 3.12616C14.2077 3.06577 14.309 3.02576 14.4153 3.00899C14.5216 2.99222 14.6304 2.9991 14.7337 3.02914C16.1059 3.43593 17.3624 4.16138 18.4008 5.1463C18.4785 5.2208 18.5388 5.31152 18.5774 5.41199C18.6161 5.51246 18.6321 5.62021 18.6243 5.72757L18.5163 7.40294L19.2383 8.6534L20.7431 9.39753C20.84 9.4445 20.9253 9.51225 20.993 9.59595C21.0607 9.67964 21.1091 9.77724 21.1347 9.88177C21.4685 11.2735 21.4685 12.7244 21.1348 14.1161C21.1091 14.2207 21.0607 14.3183 20.993 14.402C20.9253 14.4857 20.84 14.5534 20.7431 14.6004L19.2382 15.3445L18.5163 16.595L18.6243 18.2703C18.632 18.3776 18.616 18.4854 18.5774 18.5859C18.5387 18.6863 18.4784 18.7771 18.4007 18.8515C17.3623 19.8365 16.1058 20.5619 14.7336 20.9687C14.6303 20.9988 14.5216 21.0057 14.4152 20.9889C14.3089 20.9721 14.2076 20.9321 14.1185 20.8717L12.7216 19.9405H11.2777L9.8808 20.8717C9.7917 20.9321 9.69037 20.9721 9.58405 20.9888C9.47772 21.0056 9.369 20.9987 9.26563 20.9687C7.89347 20.5619 6.63694 19.8364 5.59856 18.8515C5.52087 18.777 5.46055 18.6863 5.42191 18.5858C5.38327 18.4854 5.36726 18.3776 5.37501 18.2703ZM17.0533 12C17.0533 14.791 14.7907 17.0536 11.9996 17.0536C9.20857 17.0536 6.94597 14.791 6.94597 12C6.94597 9.2089 9.20857 6.9463 11.9996 6.9463C14.7907 6.9463 17.0533 9.2089 17.0533 12Z" fill="white" fill-opacity="0.5"/>
</svg>
