<svg width="315" height="40" viewBox="0 0 315 40" fill="none" xmlns="http://www.w3.org/2000/svg">
<path d="M19.9387 26.3605H20.0433C20.5241 26.3605 20.9248 26.2977 21.2454 26.1723C21.5694 26.0434 21.8273 25.8657 22.0189 25.6392C22.2106 25.4127 22.3482 25.1462 22.4318 24.8395C22.5154 24.5329 22.5573 24.2001 22.5573 23.8413V22.5294C22.5573 22.2193 22.5241 21.9475 22.4579 21.714C22.3952 21.4771 22.3046 21.2802 22.1862 21.1234C22.0712 20.9632 21.937 20.8429 21.7837 20.7628C21.6339 20.6827 21.4719 20.6426 21.2976 20.6426C21.106 20.6426 20.9335 20.6861 20.7802 20.7733C20.6304 20.8569 20.5032 20.9736 20.3987 21.1234C20.2976 21.2698 20.2192 21.4423 20.1635 21.6409C20.1112 21.836 20.0851 22.0451 20.0851 22.2681C20.0851 22.4771 20.1095 22.6792 20.1583 22.8743C20.2105 23.066 20.2872 23.2367 20.3882 23.3865C20.4893 23.5364 20.6164 23.6548 20.7698 23.7419C20.9231 23.8291 21.1025 23.8726 21.3081 23.8726C21.5032 23.8726 21.6827 23.836 21.8464 23.7629C22.0102 23.6862 22.1531 23.5834 22.275 23.4545C22.397 23.3256 22.4928 23.181 22.5625 23.0207C22.6322 22.8604 22.6705 22.6966 22.6775 22.5294L23.1583 22.6757C23.1583 22.9405 23.1026 23.2019 22.9911 23.4597C22.883 23.7141 22.7315 23.9475 22.5363 24.1601C22.3447 24.3691 22.12 24.5364 21.8621 24.6618C21.6078 24.7873 21.3307 24.85 21.0311 24.85C20.6687 24.85 20.3481 24.782 20.0694 24.6461C19.7941 24.5068 19.5642 24.3186 19.3795 24.0817C19.1983 23.8447 19.0624 23.573 18.9718 23.2663C18.8812 22.9597 18.8359 22.6374 18.8359 22.2994C18.8359 21.9336 18.8917 21.5903 19.0032 21.2698C19.1147 20.9492 19.2767 20.667 19.4892 20.4231C19.7018 20.1757 19.9596 19.984 20.2628 19.8481C20.5694 19.7088 20.9161 19.6391 21.3029 19.6391C21.714 19.6391 22.0747 19.7192 22.3848 19.8795C22.6949 20.0398 22.9562 20.261 23.1688 20.5433C23.3813 20.8255 23.5416 21.153 23.6496 21.5259C23.7576 21.8987 23.8116 22.2994 23.8116 22.728V23.1723C23.8116 23.6217 23.7716 24.0555 23.6914 24.4737C23.6113 24.8883 23.4806 25.2733 23.2994 25.6287C23.1217 25.9807 22.8865 26.2908 22.5938 26.5591C22.3046 26.8239 21.9492 27.0312 21.5276 27.181C21.1095 27.3274 20.6182 27.4006 20.0537 27.4006H19.9387V26.3605ZM25.3089 26.7263C25.3089 26.5312 25.3751 26.3674 25.5076 26.235C25.64 26.0991 25.8194 26.0312 26.0459 26.0312C26.2759 26.0312 26.4553 26.0991 26.5842 26.235C26.7166 26.3674 26.7828 26.5312 26.7828 26.7263C26.7828 26.9215 26.7166 27.0852 26.5842 27.2176C26.4553 27.35 26.2759 27.4162 26.0459 27.4162C25.8194 27.4162 25.64 27.35 25.5076 27.2176C25.3751 27.0852 25.3089 26.9215 25.3089 26.7263ZM25.3142 22.2733C25.3142 22.0782 25.3804 21.9144 25.5128 21.782C25.6452 21.6461 25.8246 21.5781 26.0511 21.5781C26.2811 21.5781 26.4605 21.6461 26.5895 21.782C26.7219 21.9144 26.7881 22.0782 26.7881 22.2733C26.7881 22.4684 26.7219 22.6322 26.5895 22.7646C26.4605 22.897 26.2811 22.9632 26.0511 22.9632C25.8246 22.9632 25.6452 22.897 25.5128 22.7646C25.3804 22.6322 25.3142 22.4684 25.3142 22.2733ZM29.6286 22.9789H30.3812C30.6739 22.9789 30.9161 22.9283 31.1077 22.8273C31.3029 22.7263 31.4475 22.5869 31.5415 22.4092C31.6356 22.2315 31.6827 22.0276 31.6827 21.7977C31.6827 21.5572 31.6391 21.3517 31.552 21.1809C31.4684 21.0067 31.3394 20.8726 31.1652 20.7785C30.9945 20.6844 30.7767 20.6374 30.5119 20.6374C30.2889 20.6374 30.0868 20.6827 29.9056 20.7733C29.7279 20.8604 29.5868 20.9858 29.4823 21.1496C29.3777 21.3098 29.3255 21.5015 29.3255 21.7245H28.0606C28.0606 21.3203 28.1669 20.9614 28.3795 20.6478C28.592 20.3342 28.8812 20.0886 29.2471 19.9109C29.6164 19.7297 30.0311 19.6391 30.491 19.6391C30.9823 19.6391 31.4109 19.721 31.7767 19.8847C32.1461 20.045 32.4335 20.2854 32.6391 20.606C32.8447 20.9266 32.9475 21.3238 32.9475 21.7977C32.9475 22.0137 32.897 22.2332 32.7959 22.4562C32.6949 22.6792 32.545 22.883 32.3464 23.0677C32.1478 23.2489 31.9004 23.397 31.6043 23.512C31.3081 23.6235 30.9649 23.6792 30.5746 23.6792H29.6286V22.9789ZM29.6286 23.9615V23.2716H30.5746C31.0206 23.2716 31.4004 23.3238 31.714 23.4284C32.0311 23.5329 32.2889 23.6775 32.4875 23.8622C32.6862 24.0433 32.8308 24.2507 32.9213 24.4841C33.0154 24.7176 33.0625 24.965 33.0625 25.2263C33.0625 25.5817 32.998 25.8988 32.8691 26.1775C32.7436 26.4528 32.5642 26.6863 32.3307 26.8779C32.0973 27.0695 31.8238 27.2141 31.5102 27.3117C31.2001 27.4093 30.8621 27.458 30.4962 27.458C30.1687 27.458 29.8551 27.4128 29.5554 27.3222C29.2558 27.2316 28.9875 27.0974 28.7505 26.9197C28.5136 26.7385 28.3254 26.5138 28.1861 26.2455C28.0502 25.9737 27.9822 25.6601 27.9822 25.3047H29.2418C29.2418 25.5312 29.2941 25.7315 29.3986 25.9058C29.5067 26.0765 29.6565 26.2106 29.8481 26.3082C30.0432 26.4058 30.2662 26.4545 30.5171 26.4545C30.7819 26.4545 31.0102 26.4075 31.2018 26.3134C31.3934 26.2193 31.5398 26.08 31.6408 25.8953C31.7454 25.7106 31.7976 25.4876 31.7976 25.2263C31.7976 24.9301 31.7401 24.6897 31.6252 24.505C31.5102 24.3204 31.3464 24.1845 31.1339 24.0974C30.9213 24.0068 30.6704 23.9615 30.3812 23.9615H29.6286ZM39.4048 22.9109V24.1548C39.4048 24.7507 39.3456 25.2594 39.2271 25.681C39.1121 26.0991 38.9449 26.4389 38.7254 26.7002C38.5058 26.9615 38.2428 27.1532 37.9361 27.2751C37.633 27.3971 37.2933 27.458 36.917 27.458C36.6173 27.458 36.3386 27.4197 36.0807 27.3431C35.8264 27.2664 35.5964 27.1462 35.3908 26.9824C35.1852 26.8187 35.0093 26.6079 34.8629 26.35C34.7201 26.0887 34.6086 25.7768 34.5284 25.4145C34.4518 25.0521 34.4134 24.6322 34.4134 24.1548V22.9109C34.4134 22.3116 34.4727 21.8064 34.5911 21.3952C34.7096 20.9806 34.8786 20.6443 35.0981 20.3865C35.3176 20.1252 35.579 19.9353 35.8821 19.8168C36.1887 19.6983 36.5302 19.6391 36.9065 19.6391C37.2097 19.6391 37.4884 19.6774 37.7428 19.7541C38.0006 19.8272 38.2306 19.944 38.4327 20.1042C38.6383 20.2645 38.8125 20.4736 38.9553 20.7314C39.1017 20.9858 39.2132 21.2942 39.2898 21.6565C39.3665 22.0154 39.4048 22.4336 39.4048 22.9109ZM38.1452 24.3326V22.7228C38.1452 22.4196 38.1278 22.1531 38.0929 21.9231C38.0581 21.6896 38.0058 21.4928 37.9361 21.3325C37.8699 21.1687 37.7863 21.0363 37.6853 20.9353C37.5842 20.8307 37.4692 20.7558 37.3403 20.7105C37.2114 20.6618 37.0668 20.6374 36.9065 20.6374C36.7114 20.6374 36.5372 20.6757 36.3839 20.7523C36.2305 20.8255 36.1016 20.944 35.9971 21.1078C35.8926 21.2715 35.8124 21.4876 35.7567 21.7558C35.7044 22.0207 35.6783 22.343 35.6783 22.7228V24.3326C35.6783 24.6392 35.6957 24.9092 35.7305 25.1427C35.7654 25.3761 35.8176 25.5765 35.8873 25.7437C35.957 25.9075 36.0406 26.0434 36.1382 26.1514C36.2393 26.2559 36.3542 26.3326 36.4832 26.3814C36.6156 26.4302 36.7602 26.4545 36.917 26.4545C37.1156 26.4545 37.2915 26.4162 37.4449 26.3396C37.5982 26.2629 37.7271 26.1409 37.8316 25.9737C37.9361 25.803 38.0145 25.5817 38.0668 25.3099C38.1191 25.0381 38.1452 24.7124 38.1452 24.3326Z" fill="white"/>
<path opacity="0.1" d="M267.979 20.4395C265.379 20.4395 263.104 21.5768 261.48 23.3639L267.979 31.2709L274.477 23.3639C272.853 21.5768 270.578 20.4395 267.979 20.4395Z" fill="white"/>
<path d="M285.628 20.4395L274.796 31.2709H285.628V20.4395V20.4395Z" fill="white"/>
<path opacity="0.3" d="M294.739 20.123H292.445V21.2699H291.298C290.876 21.2699 290.534 21.655 290.534 22.1301V30.7315C290.534 31.2066 290.876 31.5917 291.298 31.5917H295.886C296.308 31.5917 296.65 31.2066 296.65 30.7315V22.1301C296.65 21.655 296.308 21.2699 295.886 21.2699H294.739V20.123Z" fill="white"/>
<path d="M290.534 26.2402C290.534 26.6862 290.534 30.3434 290.534 30.7894C290.534 31.2328 290.876 31.5923 291.298 31.5923H295.886C296.308 31.5923 296.65 31.2328 296.65 30.7894C296.65 30.3434 296.65 26.6862 296.65 26.2402H290.534Z" fill="white"/>
<path fill-rule="evenodd" clip-rule="evenodd" d="M158 13.7617C152.933 13.7617 148.825 17.8699 148.825 22.9366C148.825 28.0033 152.933 32.1115 158 32.1115C163.067 32.1115 167.175 28.0033 167.175 22.9366C167.175 17.8699 163.067 13.7617 158 13.7617Z" fill="white"/>
</svg>
