<svg width="285" height="556" viewBox="0 0 285 556" fill="none" xmlns="http://www.w3.org/2000/svg">
<path d="M108.518 266.954V279.762H105.949V274.312H100.463V279.762H97.8938V266.954H100.463V272.22H105.949V266.954H108.518ZM112.35 268.385C111.897 268.385 111.518 268.244 111.212 267.963C110.918 267.669 110.772 267.308 110.772 266.88C110.772 266.452 110.918 266.097 111.212 265.816C111.518 265.522 111.897 265.375 112.35 265.375C112.802 265.375 113.175 265.522 113.469 265.816C113.775 266.097 113.928 266.452 113.928 266.88C113.928 267.308 113.775 267.669 113.469 267.963C113.175 268.244 112.802 268.385 112.35 268.385ZM113.616 269.596V279.762H111.047V269.596H113.616ZM121.787 269.449C122.998 269.449 123.977 269.834 124.723 270.605C125.47 271.364 125.843 272.428 125.843 273.798V279.762H123.274V274.147C123.274 273.339 123.072 272.722 122.668 272.293C122.264 271.853 121.714 271.633 121.017 271.633C120.307 271.633 119.744 271.853 119.329 272.293C118.925 272.722 118.723 273.339 118.723 274.147V279.762H116.154V269.596H118.723V270.862C119.065 270.422 119.5 270.079 120.026 269.834C120.564 269.578 121.151 269.449 121.787 269.449ZM131.277 271.706V276.624C131.277 276.966 131.356 277.217 131.515 277.376C131.686 277.523 131.968 277.596 132.359 277.596H133.552V279.762H131.937C129.772 279.762 128.689 278.71 128.689 276.606V271.706H127.478V269.596H128.689V267.082H131.277V269.596H133.552V271.706H131.277ZM139.148 273.339C139.148 272.079 139.43 270.954 139.992 269.963C140.567 268.96 141.344 268.183 142.323 267.633C143.314 267.07 144.421 266.788 145.644 266.788C147.075 266.788 148.329 267.155 149.406 267.889C150.482 268.623 151.235 269.639 151.663 270.935H148.709C148.415 270.324 147.999 269.865 147.461 269.559C146.935 269.253 146.323 269.1 145.626 269.1C144.88 269.1 144.213 269.278 143.626 269.633C143.051 269.975 142.598 270.464 142.268 271.101C141.95 271.737 141.791 272.483 141.791 273.339C141.791 274.183 141.95 274.93 142.268 275.578C142.598 276.214 143.051 276.71 143.626 277.064C144.213 277.407 144.88 277.578 145.626 277.578C146.323 277.578 146.935 277.425 147.461 277.119C147.999 276.801 148.415 276.336 148.709 275.725H151.663C151.235 277.034 150.482 278.055 149.406 278.789C148.342 279.511 147.088 279.872 145.644 279.872C144.421 279.872 143.314 279.597 142.323 279.046C141.344 278.483 140.567 277.707 139.992 276.716C139.43 275.725 139.148 274.599 139.148 273.339ZM158.371 279.927C157.392 279.927 156.512 279.713 155.729 279.285C154.946 278.844 154.328 278.226 153.875 277.431C153.435 276.636 153.215 275.719 153.215 274.679C153.215 273.639 153.441 272.722 153.894 271.926C154.359 271.131 154.989 270.52 155.784 270.091C156.579 269.651 157.466 269.431 158.444 269.431C159.423 269.431 160.31 269.651 161.105 270.091C161.9 270.52 162.524 271.131 162.977 271.926C163.442 272.722 163.674 273.639 163.674 274.679C163.674 275.719 163.436 276.636 162.959 277.431C162.494 278.226 161.858 278.844 161.05 279.285C160.255 279.713 159.362 279.927 158.371 279.927ZM158.371 277.688C158.836 277.688 159.27 277.578 159.674 277.358C160.09 277.125 160.42 276.783 160.665 276.33C160.909 275.878 161.032 275.327 161.032 274.679C161.032 273.712 160.775 272.972 160.261 272.459C159.76 271.932 159.142 271.669 158.408 271.669C157.674 271.669 157.056 271.932 156.554 272.459C156.065 272.972 155.82 273.712 155.82 274.679C155.82 275.645 156.059 276.391 156.536 276.918C157.025 277.431 157.637 277.688 158.371 277.688ZM164.898 274.642C164.898 273.615 165.1 272.703 165.504 271.908C165.919 271.113 166.482 270.501 167.192 270.073C167.901 269.645 168.69 269.431 169.559 269.431C170.219 269.431 170.849 269.578 171.449 269.871C172.048 270.153 172.525 270.532 172.88 271.009V266.183H175.486V279.762H172.88V278.257C172.562 278.759 172.116 279.162 171.541 279.468C170.966 279.774 170.299 279.927 169.541 279.927C168.684 279.927 167.901 279.707 167.192 279.266C166.482 278.826 165.919 278.208 165.504 277.413C165.1 276.606 164.898 275.682 164.898 274.642ZM172.899 274.679C172.899 274.055 172.776 273.523 172.532 273.082C172.287 272.63 171.957 272.287 171.541 272.055C171.125 271.81 170.678 271.688 170.201 271.688C169.724 271.688 169.284 271.804 168.88 272.036C168.476 272.269 168.146 272.611 167.889 273.064C167.644 273.504 167.522 274.03 167.522 274.642C167.522 275.254 167.644 275.792 167.889 276.257C168.146 276.71 168.476 277.058 168.88 277.303C169.296 277.548 169.736 277.67 170.201 277.67C170.678 277.67 171.125 277.554 171.541 277.321C171.957 277.077 172.287 276.734 172.532 276.294C172.776 275.841 172.899 275.303 172.899 274.679ZM187.445 274.459C187.445 274.826 187.421 275.156 187.372 275.45H179.94C180.001 276.184 180.258 276.758 180.711 277.174C181.163 277.59 181.72 277.798 182.38 277.798C183.335 277.798 184.014 277.388 184.417 276.569H187.188C186.895 277.548 186.332 278.355 185.5 278.991C184.668 279.615 183.647 279.927 182.436 279.927C181.457 279.927 180.576 279.713 179.793 279.285C179.022 278.844 178.417 278.226 177.977 277.431C177.548 276.636 177.334 275.719 177.334 274.679C177.334 273.627 177.548 272.703 177.977 271.908C178.405 271.113 179.004 270.501 179.775 270.073C180.546 269.645 181.432 269.431 182.436 269.431C183.402 269.431 184.264 269.639 185.023 270.055C185.794 270.471 186.387 271.064 186.803 271.835C187.231 272.593 187.445 273.468 187.445 274.459ZM184.784 273.725C184.772 273.064 184.534 272.538 184.069 272.147C183.604 271.743 183.035 271.541 182.362 271.541C181.726 271.541 181.188 271.737 180.747 272.128C180.319 272.507 180.056 273.04 179.958 273.725H184.784Z" fill="white"/>
<path d="M44.8557 379.613V377.246H49.278V390.623H46.6356V379.613H44.8557Z" fill="white"/>
<path d="M138.782 387.724C139.957 386.745 140.892 385.932 141.59 385.283C142.287 384.623 142.868 383.938 143.333 383.228C143.798 382.519 144.03 381.821 144.03 381.136C144.03 380.512 143.883 380.023 143.59 379.668C143.296 379.313 142.844 379.136 142.232 379.136C141.62 379.136 141.149 379.344 140.819 379.76C140.489 380.164 140.317 380.72 140.305 381.43H137.81C137.859 379.962 138.293 378.849 139.112 378.09C139.944 377.332 140.996 376.952 142.269 376.952C143.663 376.952 144.734 377.326 145.48 378.072C146.226 378.806 146.599 379.778 146.599 380.989C146.599 381.944 146.342 382.855 145.828 383.724C145.315 384.592 144.727 385.351 144.067 385.999C143.406 386.635 142.544 387.406 141.48 388.311H146.893V390.44H137.828V388.531L138.782 387.724Z" fill="white"/>
<path d="M232.819 380.769C232.88 379.546 233.308 378.604 234.103 377.943C234.91 377.271 235.969 376.934 237.278 376.934C238.171 376.934 238.935 377.093 239.571 377.411C240.207 377.717 240.685 378.139 241.003 378.677C241.333 379.203 241.498 379.803 241.498 380.476C241.498 381.246 241.296 381.901 240.892 382.439C240.501 382.965 240.03 383.32 239.48 383.503V383.577C240.189 383.797 240.74 384.188 241.131 384.751C241.535 385.314 241.737 386.036 241.737 386.916C241.737 387.65 241.565 388.305 241.223 388.88C240.892 389.455 240.397 389.907 239.736 390.238C239.088 390.556 238.305 390.715 237.388 390.715C236.005 390.715 234.88 390.366 234.011 389.669C233.143 388.972 232.684 387.944 232.635 386.586H235.131C235.155 387.186 235.357 387.669 235.736 388.036C236.128 388.39 236.66 388.568 237.333 388.568C237.957 388.568 238.434 388.397 238.764 388.054C239.106 387.699 239.278 387.247 239.278 386.696C239.278 385.962 239.045 385.436 238.58 385.118C238.116 384.8 237.394 384.641 236.415 384.641H235.883V382.531H236.415C238.152 382.531 239.021 381.95 239.021 380.788C239.021 380.262 238.862 379.852 238.544 379.558C238.238 379.265 237.791 379.118 237.204 379.118C236.629 379.118 236.183 379.277 235.865 379.595C235.559 379.901 235.381 380.292 235.332 380.769H232.819Z" fill="white"/>
<path d="M42.0575 436.951V434.932L48.0579 426.345H51.0489V434.712H52.6637V436.951H51.0489V439.557H48.4799V436.951H42.0575ZM48.6451 429.097L44.8834 434.712H48.6451V429.097Z" fill="white"/>
<path d="M146.466 428.4H140.521V431.538C140.778 431.22 141.145 430.963 141.622 430.767C142.099 430.559 142.607 430.455 143.145 430.455C144.123 430.455 144.925 430.669 145.549 431.097C146.173 431.526 146.625 432.076 146.907 432.749C147.188 433.409 147.329 434.119 147.329 434.877C147.329 436.284 146.925 437.416 146.117 438.272C145.322 439.128 144.185 439.557 142.704 439.557C141.31 439.557 140.197 439.208 139.365 438.511C138.533 437.813 138.062 436.902 137.952 435.777H140.447C140.557 436.266 140.802 436.657 141.181 436.951C141.573 437.245 142.068 437.391 142.668 437.391C143.389 437.391 143.934 437.165 144.301 436.712C144.668 436.26 144.851 435.66 144.851 434.914C144.851 434.156 144.662 433.581 144.283 433.189C143.916 432.786 143.371 432.584 142.649 432.584C142.136 432.584 141.707 432.712 141.365 432.969C141.022 433.226 140.778 433.568 140.631 433.997H138.172V426.143H146.466V428.4Z" fill="white"/>
<path d="M239.218 429.519C239.096 429.006 238.882 428.62 238.576 428.363C238.282 428.106 237.854 427.978 237.291 427.978C236.447 427.978 235.823 428.32 235.42 429.006C235.028 429.678 234.826 430.779 234.814 432.308C235.108 431.819 235.536 431.44 236.099 431.171C236.661 430.889 237.273 430.749 237.934 430.749C238.729 430.749 239.432 430.92 240.044 431.263C240.655 431.605 241.133 432.107 241.475 432.767C241.818 433.416 241.989 434.199 241.989 435.116C241.989 435.985 241.812 436.761 241.457 437.446C241.114 438.119 240.607 438.645 239.934 439.024C239.261 439.404 238.46 439.593 237.53 439.593C236.258 439.593 235.255 439.312 234.521 438.749C233.799 438.187 233.291 437.404 232.998 436.4C232.716 435.385 232.575 434.137 232.575 432.657C232.575 430.418 232.961 428.73 233.731 427.593C234.502 426.443 235.719 425.868 237.383 425.868C238.668 425.868 239.665 426.216 240.374 426.914C241.084 427.611 241.493 428.479 241.604 429.519H239.218ZM237.346 432.859C236.698 432.859 236.154 433.049 235.713 433.428C235.273 433.807 235.053 434.358 235.053 435.079C235.053 435.801 235.255 436.37 235.658 436.786C236.074 437.202 236.655 437.41 237.401 437.41C238.062 437.41 238.582 437.208 238.961 436.804C239.353 436.4 239.548 435.856 239.548 435.171C239.548 434.462 239.359 433.899 238.98 433.483C238.613 433.067 238.068 432.859 237.346 432.859Z" fill="white"/>
<path d="M51.6819 477.056L46.8009 488.488H44.1952L49.1129 477.35H42.8373V475.148H51.6819V477.056Z" fill="white"/>
<path d="M139.713 481.405C138.49 480.769 137.878 479.784 137.878 478.451C137.878 477.79 138.044 477.191 138.374 476.653C138.716 476.102 139.224 475.668 139.897 475.35C140.582 475.02 141.414 474.854 142.392 474.854C143.371 474.854 144.197 475.02 144.87 475.35C145.555 475.668 146.062 476.102 146.393 476.653C146.735 477.191 146.907 477.79 146.907 478.451C146.907 479.124 146.741 479.717 146.411 480.231C146.081 480.732 145.64 481.124 145.09 481.405C145.763 481.699 146.289 482.127 146.668 482.69C147.047 483.252 147.237 483.919 147.237 484.69C147.237 485.522 147.023 486.25 146.595 486.874C146.179 487.485 145.604 487.956 144.87 488.286C144.136 488.617 143.31 488.782 142.392 488.782C141.475 488.782 140.649 488.617 139.915 488.286C139.193 487.956 138.619 487.485 138.19 486.874C137.774 486.25 137.566 485.522 137.566 484.69C137.566 483.919 137.756 483.252 138.135 482.69C138.515 482.115 139.041 481.687 139.713 481.405ZM144.411 478.818C144.411 478.219 144.227 477.754 143.86 477.423C143.506 477.093 143.016 476.928 142.392 476.928C141.781 476.928 141.291 477.093 140.924 477.423C140.57 477.754 140.392 478.225 140.392 478.836C140.392 479.387 140.576 479.827 140.943 480.157C141.322 480.488 141.805 480.653 142.392 480.653C142.98 480.653 143.463 480.488 143.842 480.157C144.221 479.815 144.411 479.368 144.411 478.818ZM142.392 482.525C141.695 482.525 141.126 482.702 140.686 483.057C140.258 483.412 140.044 483.919 140.044 484.58C140.044 485.191 140.252 485.693 140.668 486.084C141.096 486.464 141.671 486.653 142.392 486.653C143.114 486.653 143.683 486.458 144.099 486.066C144.515 485.675 144.723 485.179 144.723 484.58C144.723 483.931 144.509 483.43 144.081 483.075C143.652 482.708 143.09 482.525 142.392 482.525Z" fill="white"/>
<path d="M235.255 484.727C235.352 485.265 235.573 485.681 235.915 485.974C236.27 486.256 236.741 486.396 237.328 486.396C238.087 486.396 238.637 486.084 238.98 485.461C239.322 484.824 239.493 483.76 239.493 482.268C239.212 482.659 238.814 482.965 238.301 483.185C237.799 483.405 237.255 483.515 236.667 483.515C235.885 483.515 235.175 483.356 234.539 483.038C233.915 482.708 233.42 482.225 233.053 481.589C232.686 480.94 232.502 480.157 232.502 479.24C232.502 477.882 232.906 476.806 233.713 476.01C234.521 475.203 235.622 474.799 237.016 474.799C238.753 474.799 239.977 475.356 240.686 476.469C241.408 477.582 241.769 479.258 241.769 481.497C241.769 483.087 241.628 484.39 241.347 485.406C241.078 486.421 240.607 487.192 239.934 487.718C239.273 488.244 238.368 488.507 237.218 488.507C236.313 488.507 235.542 488.335 234.906 487.993C234.27 487.638 233.78 487.179 233.438 486.617C233.108 486.042 232.918 485.412 232.869 484.727H235.255ZM237.2 481.424C237.836 481.424 238.337 481.228 238.704 480.836C239.071 480.445 239.255 479.919 239.255 479.258C239.255 478.537 239.059 477.98 238.668 477.589C238.288 477.185 237.768 476.983 237.108 476.983C236.447 476.983 235.921 477.191 235.53 477.607C235.151 478.011 234.961 478.549 234.961 479.222C234.961 479.87 235.144 480.402 235.511 480.818C235.891 481.222 236.453 481.424 237.2 481.424Z" fill="white"/>
<path d="M137.475 530.559C137.475 528.443 137.854 526.785 138.612 525.586C139.383 524.387 140.655 523.788 142.429 523.788C144.203 523.788 145.469 524.387 146.228 525.586C146.998 526.785 147.384 528.443 147.384 530.559C147.384 532.688 146.998 534.357 146.228 535.569C145.469 536.78 144.203 537.385 142.429 537.385C140.655 537.385 139.383 536.78 138.612 535.569C137.854 534.357 137.475 532.688 137.475 530.559ZM144.851 530.559C144.851 529.654 144.79 528.895 144.668 528.284C144.558 527.66 144.325 527.152 143.971 526.761C143.628 526.369 143.114 526.173 142.429 526.173C141.744 526.173 141.224 526.369 140.869 526.761C140.527 527.152 140.294 527.66 140.172 528.284C140.062 528.895 140.007 529.654 140.007 530.559C140.007 531.489 140.062 532.272 140.172 532.908C140.282 533.532 140.515 534.039 140.869 534.431C141.224 534.81 141.744 535 142.429 535C143.114 535 143.634 534.81 143.989 534.431C144.344 534.039 144.576 533.532 144.686 532.908C144.796 532.272 144.851 531.489 144.851 530.559Z" fill="white"/>
<g clip-path="url(#clip0_2087_13673)">
<path fill-rule="evenodd" clip-rule="evenodd" d="M233.905 524.541H244.335C245.528 524.541 246.484 525.482 246.484 526.634V536.211C246.484 537.362 245.528 538.303 244.335 538.303H233.905C233.18 538.303 232.563 537.949 232.159 537.363L228.135 531.419L232.163 525.469C232.562 524.891 233.18 524.541 233.905 524.541ZM244.968 526.633C244.968 526.273 244.68 525.99 244.336 525.99H233.906C233.716 525.99 233.56 526.078 233.434 526.26L229.942 531.419L229.676 531.025V531.812L229.942 531.419L233.43 536.571C233.563 536.764 233.721 536.854 233.906 536.854H244.336C244.68 536.854 244.968 536.571 244.968 536.211V526.633Z" fill="white"/>
<path fill-rule="evenodd" clip-rule="evenodd" d="M242.315 533.726L241.311 534.682L238.77 532.259L236.228 534.682L235.225 533.726L237.766 531.302L235.225 528.878L236.228 527.922L238.77 530.345L241.311 527.922L242.315 528.878L239.773 531.302L242.315 533.726Z" fill="white"/>
</g>
<rect x="62.6042" y="302.431" width="35.935" height="35.935" rx="8.7926" stroke="#9898A0" stroke-width="0.764574"/>
<rect x="103.891" y="302.431" width="35.935" height="35.935" rx="8.7926" stroke="#9898A0" stroke-width="0.764574"/>
<rect x="145.178" y="302.431" width="35.935" height="35.935" rx="8.7926" stroke="#9898A0" stroke-width="0.764574"/>
<rect x="186.465" y="302.431" width="35.935" height="35.935" rx="8.7926" stroke="#9898A0" stroke-width="0.764574"/>
<path fill-rule="evenodd" clip-rule="evenodd" d="M142.505 5.36189C79.5782 5.36189 28.5662 56.1783 28.5662 118.864C28.5662 152.013 42.8289 181.84 65.5816 202.595C66.5129 203.444 66.5766 204.885 65.7238 205.813C64.871 206.74 63.4248 206.804 62.4935 205.954C38.8346 184.373 23.9934 153.343 23.9934 118.864C23.9934 53.6625 77.0528 0.806641 142.505 0.806641C207.957 0.806641 261.016 53.6625 261.016 118.864C261.016 153.343 246.175 184.373 222.516 205.954C221.585 206.804 220.139 206.74 219.286 205.813C218.433 204.885 218.497 203.444 219.428 202.595C242.181 181.84 256.443 152.013 256.443 118.864C256.443 56.1783 205.431 5.36189 142.505 5.36189Z" fill="white"/>
<path fill-rule="evenodd" clip-rule="evenodd" d="M66.5291 206.563C65.6843 207.498 64.2387 207.574 63.3001 206.732C14.6527 163.112 10.7135 88.4654 54.5017 40.0046C55.3465 39.0697 56.7921 38.994 57.7307 39.8355C58.6692 40.6771 58.7452 42.1172 57.9004 43.0521C15.8018 89.6431 19.5891 161.409 66.3594 203.346C67.2979 204.188 67.3739 205.628 66.5291 206.563Z" fill="#9898A0"/>
<ellipse cx="57.194" cy="41.0502" rx="6.09705" ry="6.07367" fill="white"/>
<path d="M78.3065 213.073C77.807 213.073 77.3574 212.987 76.9578 212.816C76.5582 212.638 76.2442 212.388 76.0159 212.067C75.7875 211.746 75.6733 211.371 75.6733 210.943H76.9792C77.0078 211.264 77.1326 211.528 77.3539 211.735C77.5822 211.942 77.8998 212.045 78.3065 212.045C78.7275 212.045 79.0558 211.945 79.2913 211.746C79.5268 211.539 79.6445 211.275 79.6445 210.954C79.6445 210.704 79.5696 210.5 79.4197 210.343C79.277 210.186 79.095 210.065 78.8738 209.98C78.6598 209.894 78.36 209.801 77.9747 209.701C77.4894 209.573 77.0934 209.444 76.7865 209.316C76.4868 209.18 76.2299 208.973 76.0159 208.695C75.8018 208.417 75.6947 208.046 75.6947 207.582C75.6947 207.154 75.8018 206.779 76.0159 206.458C76.2299 206.137 76.5296 205.891 76.915 205.719C77.3003 205.548 77.7463 205.462 78.253 205.462C78.9737 205.462 79.5625 205.644 80.0192 206.008C80.483 206.365 80.7399 206.857 80.7899 207.485H79.4411C79.4197 207.214 79.2913 206.982 79.0558 206.79C78.8203 206.597 78.5099 206.501 78.1245 206.501C77.7749 206.501 77.4894 206.59 77.2682 206.768C77.047 206.947 76.9364 207.204 76.9364 207.539C76.9364 207.767 77.0042 207.956 77.1398 208.106C77.2825 208.249 77.4609 208.363 77.675 208.449C77.8891 208.534 78.1816 208.627 78.5527 208.727C79.0451 208.863 79.4447 208.998 79.7516 209.134C80.0655 209.269 80.3296 209.48 80.5437 209.765C80.7649 210.044 80.8755 210.418 80.8755 210.889C80.8755 211.268 80.772 211.624 80.5651 211.96C80.3653 212.295 80.0691 212.566 79.6766 212.773C79.2913 212.973 78.8346 213.073 78.3065 213.073ZM83.739 208.096V211.36C83.739 211.582 83.7889 211.742 83.8888 211.842C83.9959 211.935 84.1743 211.981 84.424 211.981H85.1733V212.998H84.21C83.6605 212.998 83.2395 212.87 82.9469 212.613C82.6543 212.356 82.508 211.938 82.508 211.36V208.096H81.8123V207.1H82.508V205.634H83.739V207.1H85.1733V208.096H83.739ZM85.8912 210.022C85.8912 209.43 86.0126 208.906 86.2552 208.449C86.5049 207.992 86.8403 207.639 87.2614 207.389C87.6895 207.132 88.1605 207.004 88.6743 207.004C89.1381 207.004 89.5413 207.097 89.8839 207.282C90.2335 207.46 90.5118 207.685 90.7188 207.956V207.1H91.9497V212.998H90.7188V212.12C90.5118 212.399 90.2299 212.631 89.8731 212.816C89.5163 213.002 89.1096 213.094 88.6529 213.094C88.1462 213.094 87.6824 212.966 87.2614 212.709C86.8403 212.445 86.5049 212.081 86.2552 211.617C86.0126 211.146 85.8912 210.615 85.8912 210.022ZM90.7188 210.044C90.7188 209.637 90.6331 209.284 90.4619 208.984C90.2977 208.684 90.0801 208.456 89.8089 208.299C89.5378 208.142 89.2452 208.063 88.9312 208.063C88.6172 208.063 88.3246 208.142 88.0535 208.299C87.7823 208.449 87.5611 208.674 87.3898 208.973C87.2257 209.266 87.1436 209.616 87.1436 210.022C87.1436 210.429 87.2257 210.786 87.3898 211.093C87.5611 211.4 87.7823 211.635 88.0535 211.799C88.3318 211.956 88.6243 212.035 88.9312 212.035C89.2452 212.035 89.5378 211.956 89.8089 211.799C90.0801 211.642 90.2977 211.414 90.4619 211.114C90.6331 210.807 90.7188 210.45 90.7188 210.044ZM94.7728 207.956C94.9512 207.657 95.1866 207.425 95.4792 207.261C95.7789 207.089 96.1322 207.004 96.5389 207.004V208.267H96.2285C95.7504 208.267 95.3865 208.388 95.1367 208.631C94.8941 208.873 94.7728 209.294 94.7728 209.894V212.998H93.5525V207.1H94.7728V207.956ZM99.0842 208.096V211.36C99.0842 211.582 99.1342 211.742 99.2341 211.842C99.3411 211.935 99.5195 211.981 99.7693 211.981H100.519V212.998H99.5552C99.0057 212.998 98.5847 212.87 98.2921 212.613C97.9995 212.356 97.8533 211.938 97.8533 211.36V208.096H97.1575V207.1H97.8533V205.634H99.0842V207.1H100.519V208.096H99.0842Z" fill="#999999"/>
<path d="M192.159 206.434V208.618H194.728V209.613H192.159V211.893H195.049V212.889H190.939V205.439H195.049V206.434H192.159ZM199.528 206.894C199.991 206.894 200.405 206.991 200.769 207.183C201.14 207.376 201.429 207.662 201.636 208.04C201.843 208.418 201.947 208.875 201.947 209.41V212.889H200.737V209.592C200.737 209.064 200.605 208.661 200.341 208.382C200.077 208.097 199.717 207.954 199.26 207.954C198.803 207.954 198.439 208.097 198.168 208.382C197.904 208.661 197.772 209.064 197.772 209.592V212.889H196.552V206.991H197.772V207.665C197.972 207.422 198.225 207.233 198.532 207.098C198.846 206.962 199.178 206.894 199.528 206.894ZM203.096 209.913C203.096 209.321 203.218 208.796 203.46 208.339C203.71 207.883 204.046 207.53 204.467 207.28C204.895 207.023 205.369 206.894 205.89 206.894C206.276 206.894 206.654 206.98 207.025 207.151C207.403 207.315 207.703 207.537 207.924 207.815V204.968H209.155V212.889H207.924V212C207.724 212.286 207.446 212.521 207.089 212.707C206.739 212.892 206.336 212.985 205.88 212.985C205.366 212.985 204.895 212.857 204.467 212.6C204.046 212.336 203.71 211.972 203.46 211.508C203.218 211.037 203.096 210.505 203.096 209.913ZM207.924 209.934C207.924 209.528 207.838 209.174 207.667 208.875C207.503 208.575 207.285 208.347 207.014 208.19C206.743 208.033 206.45 207.954 206.136 207.954C205.822 207.954 205.53 208.033 205.259 208.19C204.988 208.339 204.766 208.564 204.595 208.864C204.431 209.157 204.349 209.506 204.349 209.913C204.349 210.32 204.431 210.677 204.595 210.983C204.766 211.29 204.988 211.526 205.259 211.69C205.537 211.847 205.83 211.925 206.136 211.925C206.45 211.925 206.743 211.847 207.014 211.69C207.285 211.533 207.503 211.304 207.667 211.005C207.838 210.698 207.924 210.341 207.924 209.934Z" fill="#999999"/>
<path d="M136.793 139.901V150.574H134.653V146.033H130.08V150.574H127.94V139.901H130.08V144.289H134.653V139.901H136.793ZM139.986 141.094C139.609 141.094 139.293 140.976 139.038 140.742C138.793 140.497 138.671 140.196 138.671 139.84C138.671 139.483 138.793 139.187 139.038 138.953C139.293 138.708 139.609 138.586 139.986 138.586C140.363 138.586 140.674 138.708 140.919 138.953C141.174 139.187 141.301 139.483 141.301 139.84C141.301 140.196 141.174 140.497 140.919 140.742C140.674 140.976 140.363 141.094 139.986 141.094ZM141.041 142.103V150.574H138.901V142.103H141.041ZM147.851 141.98C148.86 141.98 149.676 142.302 150.298 142.944C150.919 143.576 151.23 144.463 151.23 145.604V150.574H149.09V145.895C149.09 145.222 148.921 144.707 148.585 144.351C148.249 143.984 147.79 143.8 147.209 143.8C146.617 143.8 146.148 143.984 145.802 144.351C145.465 144.707 145.297 145.222 145.297 145.895V150.574H143.156V142.103H145.297V143.158C145.583 142.791 145.945 142.505 146.383 142.302C146.832 142.087 147.321 141.98 147.851 141.98ZM155.759 143.861V147.959C155.759 148.245 155.825 148.454 155.957 148.586C156.1 148.709 156.335 148.77 156.661 148.77H157.655V150.574H156.309C154.505 150.574 153.603 149.698 153.603 147.944V143.861H152.593V142.103H153.603V140.008H155.759V142.103H157.655V143.861H155.759Z" fill="white"/>
<path d="M125.366 162.943V161.83H127.593V169.633H126.362V162.943H125.366ZM129.943 167.974C130.628 167.381 131.167 166.896 131.56 166.518C131.959 166.133 132.291 165.733 132.555 165.319C132.819 164.905 132.951 164.491 132.951 164.077C132.951 163.649 132.848 163.314 132.641 163.071C132.441 162.829 132.123 162.707 131.688 162.707C131.267 162.707 130.939 162.843 130.703 163.114C130.475 163.378 130.354 163.735 130.339 164.184H129.162C129.183 163.371 129.426 162.75 129.89 162.322C130.361 161.887 130.957 161.669 131.677 161.669C132.455 161.669 133.062 161.883 133.497 162.311C133.94 162.739 134.161 163.31 134.161 164.024C134.161 164.538 134.029 165.034 133.765 165.512C133.508 165.983 133.197 166.407 132.833 166.786C132.477 167.157 132.02 167.588 131.463 168.081L130.982 168.509H134.375V169.526H129.173V168.637L129.943 167.974ZM139.568 159.528L136.656 171.506H135.458L138.358 159.528H139.568ZM142.465 167.513C142.537 167.87 142.69 168.141 142.925 168.327C143.161 168.512 143.478 168.605 143.878 168.605C144.385 168.605 144.756 168.405 144.991 168.006C145.227 167.606 145.345 166.925 145.345 165.961C145.173 166.204 144.931 166.393 144.617 166.529C144.31 166.657 143.974 166.721 143.61 166.721C143.147 166.721 142.726 166.629 142.347 166.443C141.969 166.25 141.669 165.968 141.448 165.597C141.234 165.219 141.127 164.762 141.127 164.227C141.127 163.442 141.355 162.818 141.812 162.354C142.276 161.883 142.911 161.648 143.718 161.648C144.688 161.648 145.377 161.972 145.783 162.622C146.197 163.264 146.404 164.252 146.404 165.587C146.404 166.507 146.326 167.26 146.169 167.845C146.019 168.43 145.755 168.873 145.377 169.173C144.998 169.472 144.474 169.622 143.803 169.622C143.04 169.622 142.451 169.422 142.037 169.023C141.623 168.623 141.391 168.12 141.341 167.513H142.465ZM143.825 165.694C144.253 165.694 144.588 165.562 144.831 165.298C145.081 165.027 145.205 164.67 145.205 164.227C145.205 163.735 145.073 163.353 144.809 163.082C144.552 162.804 144.199 162.664 143.75 162.664C143.3 162.664 142.943 162.807 142.679 163.093C142.422 163.371 142.294 163.738 142.294 164.195C142.294 164.63 142.419 164.991 142.669 165.276C142.925 165.555 143.311 165.694 143.825 165.694ZM149.26 167.513C149.331 167.87 149.484 168.141 149.72 168.327C149.955 168.512 150.273 168.605 150.673 168.605C151.179 168.605 151.55 168.405 151.786 168.006C152.021 167.606 152.139 166.925 152.139 165.961C151.968 166.204 151.725 166.393 151.411 166.529C151.104 166.657 150.769 166.721 150.405 166.721C149.941 166.721 149.52 166.629 149.142 166.443C148.764 166.25 148.464 165.968 148.243 165.597C148.029 165.219 147.922 164.762 147.922 164.227C147.922 163.442 148.15 162.818 148.607 162.354C149.071 161.883 149.706 161.648 150.512 161.648C151.483 161.648 152.171 161.972 152.578 162.622C152.992 163.264 153.199 164.252 153.199 165.587C153.199 166.507 153.12 167.26 152.963 167.845C152.813 168.43 152.549 168.873 152.171 169.173C151.793 169.472 151.268 169.622 150.598 169.622C149.834 169.622 149.245 169.422 148.832 169.023C148.418 168.623 148.186 168.12 148.136 167.513H149.26ZM150.619 165.694C151.047 165.694 151.383 165.562 151.625 165.298C151.875 165.027 152 164.67 152 164.227C152 163.735 151.868 163.353 151.604 163.082C151.347 162.804 150.994 162.664 150.544 162.664C150.095 162.664 149.738 162.807 149.474 163.093C149.217 163.371 149.088 163.738 149.088 164.195C149.088 164.63 149.213 164.991 149.463 165.276C149.72 165.555 150.105 165.694 150.619 165.694ZM156.054 167.513C156.126 167.87 156.279 168.141 156.515 168.327C156.75 168.512 157.068 168.605 157.467 168.605C157.974 168.605 158.345 168.405 158.58 168.006C158.816 167.606 158.934 166.925 158.934 165.961C158.762 166.204 158.52 166.393 158.206 166.529C157.899 166.657 157.564 166.721 157.2 166.721C156.736 166.721 156.315 166.629 155.937 166.443C155.558 166.25 155.259 165.968 155.037 165.597C154.823 165.219 154.716 164.762 154.716 164.227C154.716 163.442 154.945 162.818 155.401 162.354C155.865 161.883 156.5 161.648 157.307 161.648C158.277 161.648 158.966 161.972 159.373 162.622C159.786 163.264 159.993 164.252 159.993 165.587C159.993 166.507 159.915 167.26 159.758 167.845C159.608 168.43 159.344 168.873 158.966 169.173C158.588 169.472 158.063 169.622 157.392 169.622C156.629 169.622 156.04 169.422 155.626 169.023C155.212 168.623 154.98 168.12 154.93 167.513H156.054ZM157.414 165.694C157.842 165.694 158.177 165.562 158.42 165.298C158.67 165.027 158.794 164.67 158.794 164.227C158.794 163.735 158.662 163.353 158.398 163.082C158.142 162.804 157.788 162.664 157.339 162.664C156.889 162.664 156.532 162.807 156.268 163.093C156.011 163.371 155.883 163.738 155.883 164.195C155.883 164.63 156.008 164.991 156.258 165.276C156.515 165.555 156.9 165.694 157.414 165.694Z" fill="#999999"/>
<path d="M70.8757 98.7787C70.8757 98.0631 70.8757 97.3474 70.8757 96.6318C70.9023 95.9161 70.9288 95.2137 70.9553 94.5246C70.9818 93.8355 71.0083 93.1993 71.0348 92.6162C70.6372 92.8548 70.2529 93.0801 69.8818 93.2921C69.5107 93.4776 69.1131 93.6897 68.6891 93.9282L65.747 95.4788L63.5603 91.5825L71.7504 87.2887H75.766V115.676H70.8757V98.7787ZM65.2301 115.676V112.257L70.9155 111.74H75.766L81.3321 112.257V115.676H65.2301ZM95.3908 100.13C94.4366 100.13 93.668 99.8654 93.0849 99.3353C92.5017 98.7787 92.2102 97.9703 92.2102 96.9101C92.2102 95.7969 92.4885 94.9884 93.0451 94.4848C93.6282 93.9812 94.4101 93.7294 95.3908 93.7294C96.3715 93.7294 97.1402 93.9945 97.6968 94.5246C98.2534 95.0547 98.5317 95.8499 98.5317 96.9101C98.5317 97.9438 98.2401 98.7389 97.657 99.2955C97.1004 99.8522 96.345 100.13 95.3908 100.13ZM95.3908 116.073C94.4101 116.073 93.6282 115.808 93.0451 115.278C92.4885 114.722 92.2102 113.926 92.2102 112.893C92.2102 111.78 92.4885 110.971 93.0451 110.468C93.6282 109.937 94.4101 109.672 95.3908 109.672C96.3715 109.672 97.1402 109.937 97.6968 110.468C98.2534 110.998 98.5317 111.806 98.5317 112.893C98.5317 113.9 98.2401 114.682 97.657 115.238C97.1004 115.795 96.345 116.073 95.3908 116.073ZM118.475 116.073C116.222 116.073 114.366 115.503 112.908 114.364C111.451 113.198 110.377 111.528 109.688 109.354C108.999 107.154 108.654 104.491 108.654 101.363C108.654 98.2353 108.986 95.5981 109.648 93.4511C110.337 91.3042 111.398 89.6741 112.829 88.5609C114.26 87.4477 116.102 86.8911 118.355 86.8911C120.635 86.8911 122.503 87.461 123.961 88.6007C125.419 89.7404 126.492 91.4102 127.182 93.6102C127.871 95.7836 128.215 98.4474 128.215 101.602C128.215 103.775 128.043 105.763 127.698 107.565C127.354 109.341 126.797 110.865 126.029 112.137C125.286 113.383 124.279 114.351 123.007 115.04C121.761 115.729 120.25 116.073 118.475 116.073ZM114.26 111.541L111.477 109.155L122.132 91.344L124.756 94.1668L114.26 111.541ZM118.395 111.978C120.25 111.978 121.562 111.13 122.331 109.434C123.1 107.711 123.484 105.113 123.484 101.641C123.484 99.4148 123.312 97.5197 122.967 95.9559C122.649 94.3656 122.119 93.1596 121.377 92.3379C120.661 91.4898 119.667 91.0657 118.395 91.0657C117.176 91.0657 116.195 91.4633 115.453 92.2584C114.737 93.0536 114.207 94.233 113.863 95.7969C113.545 97.3342 113.386 99.269 113.386 101.602C113.386 105.021 113.757 107.605 114.499 109.354C115.241 111.104 116.54 111.978 118.395 111.978ZM141.519 116.073C139.266 116.073 137.41 115.503 135.953 114.364C134.495 113.198 133.421 111.528 132.732 109.354C132.043 107.154 131.698 104.491 131.698 101.363C131.698 98.2353 132.03 95.5981 132.692 93.4511C133.382 91.3042 134.442 89.6741 135.873 88.5609C137.304 87.4477 139.146 86.8911 141.399 86.8911C143.679 86.8911 145.547 87.461 147.005 88.6007C148.463 89.7404 149.536 91.4102 150.226 93.6102C150.915 95.7836 151.259 98.4474 151.259 101.602C151.259 103.775 151.087 105.763 150.742 107.565C150.398 109.341 149.841 110.865 149.073 112.137C148.33 113.383 147.323 114.351 146.051 115.04C144.805 115.729 143.294 116.073 141.519 116.073ZM137.304 111.541L134.521 109.155L145.176 91.344L147.8 94.1668L137.304 111.541ZM141.439 111.978C143.294 111.978 144.606 111.13 145.375 109.434C146.144 107.711 146.528 105.113 146.528 101.641C146.528 99.4148 146.356 97.5197 146.011 95.9559C145.693 94.3656 145.163 93.1596 144.421 92.3379C143.705 91.4898 142.711 91.0657 141.439 91.0657C140.22 91.0657 139.239 91.4633 138.497 92.2584C137.781 93.0536 137.251 94.233 136.907 95.7969C136.589 97.3342 136.43 99.269 136.43 101.602C136.43 105.021 136.801 107.605 137.543 109.354C138.285 111.104 139.584 111.978 141.439 111.978ZM164.523 100.13C163.569 100.13 162.8 99.8654 162.217 99.3353C161.634 98.7787 161.342 97.9703 161.342 96.9101C161.342 95.7969 161.621 94.9884 162.177 94.4848C162.76 93.9812 163.542 93.7294 164.523 93.7294C165.504 93.7294 166.272 93.9945 166.829 94.5246C167.385 95.0547 167.664 95.8499 167.664 96.9101C167.664 97.9438 167.372 98.7389 166.789 99.2955C166.232 99.8522 165.477 100.13 164.523 100.13ZM164.523 116.073C163.542 116.073 162.76 115.808 162.177 115.278C161.621 114.722 161.342 113.926 161.342 112.893C161.342 111.78 161.621 110.971 162.177 110.468C162.76 109.937 163.542 109.672 164.523 109.672C165.504 109.672 166.272 109.937 166.829 110.468C167.385 110.998 167.664 111.806 167.664 112.893C167.664 113.9 167.372 114.682 166.789 115.238C166.232 115.795 165.477 116.073 164.523 116.073ZM187.607 116.073C185.354 116.073 183.498 115.503 182.041 114.364C180.583 113.198 179.509 111.528 178.82 109.354C178.131 107.154 177.786 104.491 177.786 101.363C177.786 98.2353 178.118 95.5981 178.78 93.4511C179.47 91.3042 180.53 89.6741 181.961 88.5609C183.392 87.4477 185.234 86.8911 187.487 86.8911C189.767 86.8911 191.635 87.461 193.093 88.6007C194.551 89.7404 195.624 91.4102 196.314 93.6102C197.003 95.7836 197.347 98.4474 197.347 101.602C197.347 103.775 197.175 105.763 196.83 107.565C196.486 109.341 195.929 110.865 195.161 112.137C194.418 113.383 193.411 114.351 192.139 115.04C190.893 115.729 189.383 116.073 187.607 116.073ZM183.392 111.541L180.609 109.155L191.264 91.344L193.888 94.1668L183.392 111.541ZM187.527 111.978C189.383 111.978 190.695 111.13 191.463 109.434C192.232 107.711 192.616 105.113 192.616 101.641C192.616 99.4148 192.444 97.5197 192.099 95.9559C191.781 94.3656 191.251 93.1596 190.509 92.3379C189.793 91.4898 188.799 91.0657 187.527 91.0657C186.308 91.0657 185.327 91.4633 184.585 92.2584C183.869 93.0536 183.339 94.233 182.995 95.7969C182.677 97.3342 182.518 99.269 182.518 101.602C182.518 105.021 182.889 107.605 183.631 109.354C184.373 111.104 185.672 111.978 187.527 111.978ZM210.651 116.073C208.398 116.073 206.542 115.503 205.085 114.364C203.627 113.198 202.553 111.528 201.864 109.354C201.175 107.154 200.83 104.491 200.83 101.363C200.83 98.2353 201.162 95.5981 201.824 93.4511C202.514 91.3042 203.574 89.6741 205.005 88.5609C206.436 87.4477 208.278 86.8911 210.531 86.8911C212.811 86.8911 214.679 87.461 216.137 88.6007C217.595 89.7404 218.669 91.4102 219.358 93.6102C220.047 95.7836 220.391 98.4474 220.391 101.602C220.391 103.775 220.219 105.763 219.874 107.565C219.53 109.341 218.973 110.865 218.205 112.137C217.463 113.383 216.455 114.351 215.183 115.04C213.937 115.729 212.427 116.073 210.651 116.073ZM206.436 111.541L203.653 109.155L214.308 91.344L216.932 94.1668L206.436 111.541ZM210.571 111.978C212.427 111.978 213.739 111.13 214.507 109.434C215.276 107.711 215.66 105.113 215.66 101.641C215.66 99.4148 215.488 97.5197 215.143 95.9559C214.825 94.3656 214.295 93.1596 213.553 92.3379C212.837 91.4898 211.843 91.0657 210.571 91.0657C209.352 91.0657 208.371 91.4633 207.629 92.2584C206.913 93.0536 206.383 94.233 206.039 95.7969C205.721 97.3342 205.562 99.269 205.562 101.602C205.562 105.021 205.933 107.605 206.675 109.354C207.417 111.104 208.716 111.978 210.571 111.978Z" fill="white"/>
<defs>
<clipPath id="clip0_2087_13673">
<rect width="18.3498" height="18.3498" fill="white" transform="translate(228.135 522.246)"/>
</clipPath>
</defs>
</svg>
