<svg width="315" height="682" viewBox="0 0 315 682" fill="none" xmlns="http://www.w3.org/2000/svg">
<g clip-path="url(#clip0_2087_13670)">
<path d="M19.9387 26.3605H20.0433C20.5241 26.3605 20.9248 26.2977 21.2454 26.1723C21.5694 26.0434 21.8273 25.8657 22.0189 25.6392C22.2106 25.4127 22.3482 25.1462 22.4318 24.8395C22.5154 24.5329 22.5573 24.2001 22.5573 23.8413V22.5294C22.5573 22.2193 22.5241 21.9475 22.4579 21.714C22.3952 21.4771 22.3046 21.2802 22.1862 21.1234C22.0712 20.9632 21.937 20.8429 21.7837 20.7628C21.6339 20.6827 21.4719 20.6426 21.2976 20.6426C21.106 20.6426 20.9335 20.6861 20.7802 20.7733C20.6304 20.8569 20.5032 20.9736 20.3987 21.1234C20.2976 21.2698 20.2192 21.4423 20.1635 21.6409C20.1112 21.836 20.0851 22.0451 20.0851 22.2681C20.0851 22.4771 20.1095 22.6792 20.1583 22.8743C20.2105 23.066 20.2872 23.2367 20.3882 23.3865C20.4893 23.5364 20.6164 23.6548 20.7698 23.7419C20.9231 23.8291 21.1025 23.8726 21.3081 23.8726C21.5032 23.8726 21.6827 23.836 21.8464 23.7629C22.0102 23.6862 22.1531 23.5834 22.275 23.4545C22.397 23.3256 22.4928 23.181 22.5625 23.0207C22.6322 22.8604 22.6705 22.6966 22.6775 22.5294L23.1583 22.6757C23.1583 22.9405 23.1026 23.2019 22.9911 23.4597C22.883 23.7141 22.7315 23.9475 22.5363 24.1601C22.3447 24.3691 22.12 24.5364 21.8621 24.6618C21.6078 24.7873 21.3307 24.85 21.0311 24.85C20.6687 24.85 20.3481 24.782 20.0694 24.6461C19.7941 24.5068 19.5642 24.3186 19.3795 24.0817C19.1983 23.8447 19.0624 23.573 18.9718 23.2663C18.8812 22.9597 18.8359 22.6374 18.8359 22.2994C18.8359 21.9336 18.8917 21.5903 19.0032 21.2698C19.1147 20.9492 19.2767 20.667 19.4892 20.4231C19.7018 20.1757 19.9596 19.984 20.2628 19.8481C20.5694 19.7088 20.9161 19.6391 21.3029 19.6391C21.714 19.6391 22.0747 19.7192 22.3848 19.8795C22.6949 20.0398 22.9562 20.261 23.1688 20.5433C23.3813 20.8255 23.5416 21.153 23.6496 21.5259C23.7576 21.8987 23.8116 22.2994 23.8116 22.728V23.1723C23.8116 23.6217 23.7716 24.0555 23.6914 24.4737C23.6113 24.8883 23.4806 25.2733 23.2994 25.6287C23.1217 25.9807 22.8865 26.2908 22.5938 26.5591C22.3046 26.8239 21.9492 27.0312 21.5276 27.181C21.1095 27.3274 20.6182 27.4006 20.0537 27.4006H19.9387V26.3605ZM25.3089 26.7263C25.3089 26.5312 25.3751 26.3674 25.5076 26.235C25.64 26.0991 25.8194 26.0312 26.0459 26.0312C26.2759 26.0312 26.4553 26.0991 26.5842 26.235C26.7166 26.3674 26.7828 26.5312 26.7828 26.7263C26.7828 26.9215 26.7166 27.0852 26.5842 27.2176C26.4553 27.35 26.2759 27.4162 26.0459 27.4162C25.8194 27.4162 25.64 27.35 25.5076 27.2176C25.3751 27.0852 25.3089 26.9215 25.3089 26.7263ZM25.3142 22.2733C25.3142 22.0782 25.3804 21.9144 25.5128 21.782C25.6452 21.6461 25.8246 21.5781 26.0511 21.5781C26.2811 21.5781 26.4605 21.6461 26.5895 21.782C26.7219 21.9144 26.7881 22.0782 26.7881 22.2733C26.7881 22.4684 26.7219 22.6322 26.5895 22.7646C26.4605 22.897 26.2811 22.9632 26.0511 22.9632C25.8246 22.9632 25.6452 22.897 25.5128 22.7646C25.3804 22.6322 25.3142 22.4684 25.3142 22.2733ZM29.6286 22.9789H30.3812C30.6739 22.9789 30.9161 22.9283 31.1077 22.8273C31.3029 22.7263 31.4475 22.5869 31.5415 22.4092C31.6356 22.2315 31.6827 22.0276 31.6827 21.7977C31.6827 21.5572 31.6391 21.3517 31.552 21.1809C31.4684 21.0067 31.3394 20.8726 31.1652 20.7785C30.9945 20.6844 30.7767 20.6374 30.5119 20.6374C30.2889 20.6374 30.0868 20.6827 29.9056 20.7733C29.7279 20.8604 29.5868 20.9858 29.4823 21.1496C29.3777 21.3098 29.3255 21.5015 29.3255 21.7245H28.0606C28.0606 21.3203 28.1669 20.9614 28.3795 20.6478C28.592 20.3342 28.8812 20.0886 29.2471 19.9109C29.6164 19.7297 30.0311 19.6391 30.491 19.6391C30.9823 19.6391 31.4109 19.721 31.7767 19.8847C32.1461 20.045 32.4335 20.2854 32.6391 20.606C32.8447 20.9266 32.9475 21.3238 32.9475 21.7977C32.9475 22.0137 32.897 22.2332 32.7959 22.4562C32.6949 22.6792 32.545 22.883 32.3464 23.0677C32.1478 23.2489 31.9004 23.397 31.6043 23.512C31.3081 23.6235 30.9649 23.6792 30.5746 23.6792H29.6286V22.9789ZM29.6286 23.9615V23.2716H30.5746C31.0206 23.2716 31.4004 23.3238 31.714 23.4284C32.0311 23.5329 32.2889 23.6775 32.4875 23.8622C32.6862 24.0433 32.8308 24.2507 32.9213 24.4841C33.0154 24.7176 33.0625 24.965 33.0625 25.2263C33.0625 25.5817 32.998 25.8988 32.8691 26.1775C32.7436 26.4528 32.5642 26.6863 32.3307 26.8779C32.0973 27.0695 31.8238 27.2141 31.5102 27.3117C31.2001 27.4093 30.8621 27.458 30.4962 27.458C30.1687 27.458 29.8551 27.4128 29.5554 27.3222C29.2558 27.2316 28.9875 27.0974 28.7505 26.9197C28.5136 26.7385 28.3254 26.5138 28.1861 26.2455C28.0502 25.9737 27.9822 25.6601 27.9822 25.3047H29.2418C29.2418 25.5312 29.2941 25.7315 29.3986 25.9058C29.5067 26.0765 29.6565 26.2106 29.8481 26.3082C30.0432 26.4058 30.2662 26.4545 30.5171 26.4545C30.7819 26.4545 31.0102 26.4075 31.2018 26.3134C31.3934 26.2193 31.5398 26.08 31.6408 25.8953C31.7454 25.7106 31.7976 25.4876 31.7976 25.2263C31.7976 24.9301 31.7401 24.6897 31.6252 24.505C31.5102 24.3204 31.3464 24.1845 31.1339 24.0974C30.9213 24.0068 30.6704 23.9615 30.3812 23.9615H29.6286ZM39.4048 22.9109V24.1548C39.4048 24.7507 39.3456 25.2594 39.2271 25.681C39.1121 26.0991 38.9449 26.4389 38.7254 26.7002C38.5058 26.9615 38.2428 27.1532 37.9361 27.2751C37.633 27.3971 37.2933 27.458 36.917 27.458C36.6173 27.458 36.3386 27.4197 36.0807 27.3431C35.8264 27.2664 35.5964 27.1462 35.3908 26.9824C35.1852 26.8187 35.0093 26.6079 34.8629 26.35C34.7201 26.0887 34.6086 25.7768 34.5284 25.4145C34.4518 25.0521 34.4134 24.6322 34.4134 24.1548V22.9109C34.4134 22.3116 34.4727 21.8064 34.5911 21.3952C34.7096 20.9806 34.8786 20.6443 35.0981 20.3865C35.3176 20.1252 35.579 19.9353 35.8821 19.8168C36.1887 19.6983 36.5302 19.6391 36.9065 19.6391C37.2097 19.6391 37.4884 19.6774 37.7428 19.7541C38.0006 19.8272 38.2306 19.944 38.4327 20.1042C38.6383 20.2645 38.8125 20.4736 38.9553 20.7314C39.1017 20.9858 39.2132 21.2942 39.2898 21.6565C39.3665 22.0154 39.4048 22.4336 39.4048 22.9109ZM38.1452 24.3326V22.7228C38.1452 22.4196 38.1278 22.1531 38.0929 21.9231C38.0581 21.6896 38.0058 21.4928 37.9361 21.3325C37.8699 21.1687 37.7863 21.0363 37.6853 20.9353C37.5842 20.8307 37.4692 20.7558 37.3403 20.7105C37.2114 20.6618 37.0668 20.6374 36.9065 20.6374C36.7114 20.6374 36.5372 20.6757 36.3839 20.7523C36.2305 20.8255 36.1016 20.944 35.9971 21.1078C35.8926 21.2715 35.8124 21.4876 35.7567 21.7558C35.7044 22.0207 35.6783 22.343 35.6783 22.7228V24.3326C35.6783 24.6392 35.6957 24.9092 35.7305 25.1427C35.7654 25.3761 35.8176 25.5765 35.8873 25.7437C35.957 25.9075 36.0406 26.0434 36.1382 26.1514C36.2393 26.2559 36.3542 26.3326 36.4832 26.3814C36.6156 26.4302 36.7602 26.4545 36.917 26.4545C37.1156 26.4545 37.2915 26.4162 37.4449 26.3396C37.5982 26.2629 37.7271 26.1409 37.8316 25.9737C37.9361 25.803 38.0145 25.5817 38.0668 25.3099C38.1191 25.0381 38.1452 24.7124 38.1452 24.3326Z" fill="white"/>
<path opacity="0.1" d="M267.979 20.4395C265.379 20.4395 263.104 21.5768 261.48 23.3639L267.979 31.2709L274.477 23.3639C272.853 21.5768 270.578 20.4395 267.979 20.4395Z" fill="white"/>
<path d="M285.628 20.4395L274.796 31.2709H285.628V20.4395Z" fill="white"/>
<path opacity="0.3" d="M294.739 20.123H292.445V21.2699H291.298C290.876 21.2699 290.534 21.655 290.534 22.1301V30.7315C290.534 31.2066 290.876 31.5917 291.298 31.5917H295.886C296.308 31.5917 296.65 31.2066 296.65 30.7315V22.1301C296.65 21.655 296.308 21.2699 295.886 21.2699H294.739V20.123Z" fill="white"/>
<path d="M290.534 26.2402C290.534 26.6862 290.534 30.3434 290.534 30.7894C290.534 31.2328 290.876 31.5923 291.298 31.5923H295.886C296.308 31.5923 296.65 31.2328 296.65 30.7894C296.65 30.3434 296.65 26.6862 296.65 26.2402H290.534Z" fill="white"/>
<path fill-rule="evenodd" clip-rule="evenodd" d="M158 13.7617C152.933 13.7617 148.825 17.8699 148.825 22.9366C148.825 28.0033 152.933 32.1115 158 32.1115C163.067 32.1115 167.175 28.0033 167.175 22.9366C167.175 17.8699 163.067 13.7617 158 13.7617Z" fill="white"/>
<path d="M123.518 360.954V373.762H120.949V368.312H115.463V373.762H112.894V360.954H115.463V366.22H120.949V360.954H123.518ZM127.35 362.385C126.897 362.385 126.518 362.244 126.212 361.963C125.918 361.669 125.772 361.308 125.772 360.88C125.772 360.452 125.918 360.097 126.212 359.816C126.518 359.522 126.897 359.375 127.35 359.375C127.802 359.375 128.175 359.522 128.469 359.816C128.775 360.097 128.928 360.452 128.928 360.88C128.928 361.308 128.775 361.669 128.469 361.963C128.175 362.244 127.802 362.385 127.35 362.385ZM128.616 363.596V373.762H126.047V363.596H128.616ZM136.787 363.449C137.998 363.449 138.977 363.834 139.723 364.605C140.47 365.364 140.843 366.428 140.843 367.798V373.762H138.274V368.147C138.274 367.339 138.072 366.722 137.668 366.293C137.264 365.853 136.714 365.633 136.017 365.633C135.307 365.633 134.744 365.853 134.329 366.293C133.925 366.722 133.723 367.339 133.723 368.147V373.762H131.154V363.596H133.723V364.862C134.065 364.422 134.5 364.079 135.026 363.834C135.564 363.578 136.151 363.449 136.787 363.449ZM146.277 365.706V370.624C146.277 370.966 146.356 371.217 146.515 371.376C146.686 371.523 146.968 371.596 147.359 371.596H148.552V373.762H146.937C144.772 373.762 143.689 372.71 143.689 370.606V365.706H142.478V363.596H143.689V361.082H146.277V363.596H148.552V365.706H146.277ZM154.148 367.339C154.148 366.079 154.43 364.954 154.992 363.963C155.567 362.96 156.344 362.183 157.323 361.633C158.314 361.07 159.421 360.788 160.644 360.788C162.075 360.788 163.329 361.155 164.406 361.889C165.482 362.623 166.235 363.639 166.663 364.935H163.709C163.415 364.324 162.999 363.865 162.461 363.559C161.935 363.253 161.323 363.1 160.626 363.1C159.88 363.1 159.213 363.278 158.626 363.633C158.051 363.975 157.598 364.464 157.268 365.101C156.95 365.737 156.791 366.483 156.791 367.339C156.791 368.183 156.95 368.93 157.268 369.578C157.598 370.214 158.051 370.71 158.626 371.064C159.213 371.407 159.88 371.578 160.626 371.578C161.323 371.578 161.935 371.425 162.461 371.119C162.999 370.801 163.415 370.336 163.709 369.725H166.663C166.235 371.034 165.482 372.055 164.406 372.789C163.342 373.511 162.088 373.872 160.644 373.872C159.421 373.872 158.314 373.597 157.323 373.046C156.344 372.483 155.567 371.707 154.992 370.716C154.43 369.725 154.148 368.599 154.148 367.339ZM173.371 373.927C172.392 373.927 171.512 373.713 170.729 373.285C169.946 372.844 169.328 372.226 168.875 371.431C168.435 370.636 168.215 369.719 168.215 368.679C168.215 367.639 168.441 366.722 168.894 365.926C169.359 365.131 169.989 364.52 170.784 364.091C171.579 363.651 172.466 363.431 173.444 363.431C174.423 363.431 175.31 363.651 176.105 364.091C176.9 364.52 177.524 365.131 177.977 365.926C178.442 366.722 178.674 367.639 178.674 368.679C178.674 369.719 178.436 370.636 177.959 371.431C177.494 372.226 176.858 372.844 176.05 373.285C175.255 373.713 174.362 373.927 173.371 373.927ZM173.371 371.688C173.836 371.688 174.27 371.578 174.674 371.358C175.09 371.125 175.42 370.783 175.665 370.33C175.909 369.878 176.032 369.327 176.032 368.679C176.032 367.712 175.775 366.972 175.261 366.459C174.76 365.932 174.142 365.669 173.408 365.669C172.674 365.669 172.056 365.932 171.554 366.459C171.065 366.972 170.82 367.712 170.82 368.679C170.82 369.645 171.059 370.391 171.536 370.918C172.025 371.431 172.637 371.688 173.371 371.688ZM179.898 368.642C179.898 367.615 180.1 366.703 180.504 365.908C180.919 365.113 181.482 364.501 182.192 364.073C182.901 363.645 183.69 363.431 184.559 363.431C185.219 363.431 185.849 363.578 186.449 363.871C187.048 364.153 187.525 364.532 187.88 365.009V360.183H190.486V373.762H187.88V372.257C187.562 372.759 187.116 373.162 186.541 373.468C185.966 373.774 185.299 373.927 184.541 373.927C183.684 373.927 182.901 373.707 182.192 373.266C181.482 372.826 180.919 372.208 180.504 371.413C180.1 370.606 179.898 369.682 179.898 368.642ZM187.899 368.679C187.899 368.055 187.776 367.523 187.532 367.082C187.287 366.63 186.957 366.287 186.541 366.055C186.125 365.81 185.678 365.688 185.201 365.688C184.724 365.688 184.284 365.804 183.88 366.036C183.476 366.269 183.146 366.611 182.889 367.064C182.644 367.504 182.522 368.03 182.522 368.642C182.522 369.254 182.644 369.792 182.889 370.257C183.146 370.71 183.476 371.058 183.88 371.303C184.296 371.548 184.736 371.67 185.201 371.67C185.678 371.67 186.125 371.554 186.541 371.321C186.957 371.077 187.287 370.734 187.532 370.294C187.776 369.841 187.899 369.303 187.899 368.679ZM202.445 368.459C202.445 368.826 202.421 369.156 202.372 369.45H194.94C195.001 370.184 195.258 370.758 195.711 371.174C196.163 371.59 196.72 371.798 197.38 371.798C198.335 371.798 199.014 371.388 199.417 370.569H202.188C201.895 371.548 201.332 372.355 200.5 372.991C199.668 373.615 198.647 373.927 197.436 373.927C196.457 373.927 195.576 373.713 194.793 373.285C194.022 372.844 193.417 372.226 192.977 371.431C192.548 370.636 192.334 369.719 192.334 368.679C192.334 367.627 192.548 366.703 192.977 365.908C193.405 365.113 194.004 364.501 194.775 364.073C195.546 363.645 196.432 363.431 197.436 363.431C198.402 363.431 199.264 363.639 200.023 364.055C200.794 364.471 201.387 365.064 201.803 365.835C202.231 366.593 202.445 367.468 202.445 368.459ZM199.784 367.725C199.772 367.064 199.534 366.538 199.069 366.147C198.604 365.743 198.035 365.541 197.362 365.541C196.726 365.541 196.188 365.737 195.747 366.128C195.319 366.507 195.056 367.04 194.958 367.725H199.784Z" fill="white"/>
<path d="M59.8557 473.613V471.246H64.278V484.623H61.6356V473.613H59.8557Z" fill="white"/>
<path d="M153.782 481.724C154.957 480.745 155.892 479.932 156.59 479.283C157.287 478.623 157.868 477.938 158.333 477.228C158.798 476.519 159.03 475.821 159.03 475.136C159.03 474.512 158.883 474.023 158.59 473.668C158.296 473.313 157.844 473.136 157.232 473.136C156.62 473.136 156.149 473.344 155.819 473.76C155.489 474.164 155.317 474.72 155.305 475.43H152.81C152.859 473.962 153.293 472.849 154.112 472.09C154.944 471.332 155.996 470.952 157.269 470.952C158.663 470.952 159.734 471.326 160.48 472.072C161.226 472.806 161.599 473.778 161.599 474.989C161.599 475.944 161.342 476.855 160.828 477.724C160.315 478.592 159.727 479.351 159.067 479.999C158.406 480.635 157.544 481.406 156.48 482.311H161.893V484.44H152.828V482.531L153.782 481.724Z" fill="white"/>
<path d="M247.819 474.769C247.88 473.546 248.308 472.604 249.103 471.943C249.91 471.271 250.969 470.934 252.278 470.934C253.171 470.934 253.935 471.093 254.571 471.411C255.207 471.717 255.685 472.139 256.003 472.677C256.333 473.203 256.498 473.803 256.498 474.476C256.498 475.246 256.296 475.901 255.892 476.439C255.501 476.965 255.03 477.32 254.48 477.503V477.577C255.189 477.797 255.74 478.188 256.131 478.751C256.535 479.314 256.737 480.036 256.737 480.916C256.737 481.65 256.565 482.305 256.223 482.88C255.892 483.455 255.397 483.907 254.736 484.238C254.088 484.556 253.305 484.715 252.388 484.715C251.005 484.715 249.88 484.366 249.011 483.669C248.143 482.972 247.684 481.944 247.635 480.586H250.131C250.155 481.186 250.357 481.669 250.736 482.036C251.128 482.39 251.66 482.568 252.333 482.568C252.957 482.568 253.434 482.397 253.764 482.054C254.106 481.699 254.278 481.247 254.278 480.696C254.278 479.962 254.045 479.436 253.58 479.118C253.116 478.8 252.394 478.641 251.415 478.641H250.883V476.531H251.415C253.152 476.531 254.021 475.95 254.021 474.788C254.021 474.262 253.862 473.852 253.544 473.558C253.238 473.265 252.791 473.118 252.204 473.118C251.629 473.118 251.183 473.277 250.865 473.595C250.559 473.901 250.381 474.292 250.332 474.769H247.819Z" fill="white"/>
<path d="M57.0575 530.951V528.932L63.0579 520.345H66.0489V528.712H67.6637V530.951H66.0489V533.557H63.4799V530.951H57.0575ZM63.6451 523.097L59.8834 528.712H63.6451V523.097Z" fill="white"/>
<path d="M161.466 522.4H155.521V525.538C155.778 525.22 156.145 524.963 156.622 524.767C157.099 524.559 157.607 524.455 158.145 524.455C159.123 524.455 159.925 524.669 160.549 525.097C161.173 525.526 161.625 526.076 161.907 526.749C162.188 527.409 162.329 528.119 162.329 528.877C162.329 530.284 161.925 531.416 161.117 532.272C160.322 533.128 159.185 533.557 157.704 533.557C156.31 533.557 155.197 533.208 154.365 532.511C153.533 531.813 153.062 530.902 152.952 529.777H155.447C155.557 530.266 155.802 530.657 156.181 530.951C156.573 531.245 157.068 531.391 157.668 531.391C158.389 531.391 158.934 531.165 159.301 530.712C159.668 530.26 159.851 529.66 159.851 528.914C159.851 528.156 159.662 527.581 159.283 527.189C158.916 526.786 158.371 526.584 157.649 526.584C157.136 526.584 156.707 526.712 156.365 526.969C156.022 527.226 155.778 527.568 155.631 527.997H153.172V520.143H161.466V522.4Z" fill="white"/>
<path d="M254.218 523.519C254.096 523.006 253.882 522.62 253.576 522.363C253.282 522.106 252.854 521.978 252.291 521.978C251.447 521.978 250.823 522.32 250.42 523.006C250.028 523.678 249.826 524.779 249.814 526.308C250.108 525.819 250.536 525.44 251.099 525.171C251.661 524.889 252.273 524.749 252.934 524.749C253.729 524.749 254.432 524.92 255.044 525.263C255.655 525.605 256.133 526.107 256.475 526.767C256.818 527.416 256.989 528.199 256.989 529.116C256.989 529.985 256.812 530.761 256.457 531.446C256.114 532.119 255.607 532.645 254.934 533.024C254.261 533.404 253.46 533.593 252.53 533.593C251.258 533.593 250.255 533.312 249.521 532.749C248.799 532.187 248.291 531.404 247.998 530.4C247.716 529.385 247.575 528.137 247.575 526.657C247.575 524.418 247.961 522.73 248.731 521.593C249.502 520.443 250.719 519.868 252.383 519.868C253.668 519.868 254.665 520.216 255.374 520.914C256.084 521.611 256.493 522.479 256.604 523.519H254.218ZM252.346 526.859C251.698 526.859 251.154 527.049 250.713 527.428C250.273 527.807 250.053 528.358 250.053 529.079C250.053 529.801 250.255 530.37 250.658 530.786C251.074 531.202 251.655 531.41 252.401 531.41C253.062 531.41 253.582 531.208 253.961 530.804C254.353 530.4 254.548 529.856 254.548 529.171C254.548 528.462 254.359 527.899 253.98 527.483C253.613 527.067 253.068 526.859 252.346 526.859Z" fill="white"/>
<path d="M66.6819 571.056L61.8009 582.488H59.1952L64.1129 571.35H57.8373V569.148H66.6819V571.056Z" fill="white"/>
<path d="M154.713 575.405C153.49 574.769 152.878 573.784 152.878 572.451C152.878 571.79 153.044 571.191 153.374 570.653C153.716 570.102 154.224 569.668 154.897 569.35C155.582 569.02 156.414 568.854 157.392 568.854C158.371 568.854 159.197 569.02 159.87 569.35C160.555 569.668 161.062 570.102 161.393 570.653C161.735 571.191 161.907 571.79 161.907 572.451C161.907 573.124 161.741 573.717 161.411 574.231C161.081 574.732 160.64 575.124 160.09 575.405C160.763 575.699 161.289 576.127 161.668 576.69C162.047 577.252 162.237 577.919 162.237 578.69C162.237 579.522 162.023 580.25 161.595 580.874C161.179 581.485 160.604 581.956 159.87 582.286C159.136 582.617 158.31 582.782 157.392 582.782C156.475 582.782 155.649 582.617 154.915 582.286C154.193 581.956 153.619 581.485 153.19 580.874C152.774 580.25 152.566 579.522 152.566 578.69C152.566 577.919 152.756 577.252 153.135 576.69C153.515 576.115 154.041 575.687 154.713 575.405ZM159.411 572.818C159.411 572.219 159.227 571.754 158.86 571.423C158.506 571.093 158.016 570.928 157.392 570.928C156.781 570.928 156.291 571.093 155.924 571.423C155.57 571.754 155.392 572.225 155.392 572.836C155.392 573.387 155.576 573.827 155.943 574.157C156.322 574.488 156.805 574.653 157.392 574.653C157.98 574.653 158.463 574.488 158.842 574.157C159.221 573.815 159.411 573.368 159.411 572.818ZM157.392 576.525C156.695 576.525 156.126 576.702 155.686 577.057C155.258 577.412 155.044 577.919 155.044 578.58C155.044 579.191 155.252 579.693 155.668 580.084C156.096 580.464 156.671 580.653 157.392 580.653C158.114 580.653 158.683 580.458 159.099 580.066C159.515 579.675 159.723 579.179 159.723 578.58C159.723 577.931 159.509 577.43 159.081 577.075C158.652 576.708 158.09 576.525 157.392 576.525Z" fill="white"/>
<path d="M250.255 578.727C250.352 579.265 250.573 579.681 250.915 579.974C251.27 580.256 251.741 580.396 252.328 580.396C253.087 580.396 253.637 580.084 253.98 579.461C254.322 578.824 254.493 577.76 254.493 576.268C254.212 576.659 253.814 576.965 253.301 577.185C252.799 577.405 252.255 577.515 251.667 577.515C250.885 577.515 250.175 577.356 249.539 577.038C248.915 576.708 248.42 576.225 248.053 575.589C247.686 574.94 247.502 574.157 247.502 573.24C247.502 571.882 247.906 570.806 248.713 570.01C249.521 569.203 250.622 568.799 252.016 568.799C253.753 568.799 254.977 569.356 255.686 570.469C256.408 571.582 256.769 573.258 256.769 575.497C256.769 577.087 256.628 578.39 256.347 579.406C256.078 580.421 255.607 581.192 254.934 581.718C254.273 582.244 253.368 582.507 252.218 582.507C251.313 582.507 250.542 582.335 249.906 581.993C249.27 581.638 248.78 581.179 248.438 580.617C248.108 580.042 247.918 579.412 247.869 578.727H250.255ZM252.2 575.424C252.836 575.424 253.337 575.228 253.704 574.836C254.071 574.445 254.255 573.919 254.255 573.258C254.255 572.537 254.059 571.98 253.668 571.589C253.288 571.185 252.768 570.983 252.108 570.983C251.447 570.983 250.921 571.191 250.53 571.607C250.151 572.011 249.961 572.549 249.961 573.222C249.961 573.87 250.144 574.402 250.511 574.818C250.891 575.222 251.453 575.424 252.2 575.424Z" fill="white"/>
<path d="M152.475 624.559C152.475 622.443 152.854 620.785 153.612 619.586C154.383 618.387 155.655 617.788 157.429 617.788C159.203 617.788 160.469 618.387 161.228 619.586C161.998 620.785 162.384 622.443 162.384 624.559C162.384 626.688 161.998 628.357 161.228 629.569C160.469 630.78 159.203 631.385 157.429 631.385C155.655 631.385 154.383 630.78 153.612 629.569C152.854 628.357 152.475 626.688 152.475 624.559ZM159.851 624.559C159.851 623.654 159.79 622.895 159.668 622.284C159.558 621.66 159.325 621.152 158.971 620.761C158.628 620.369 158.114 620.173 157.429 620.173C156.744 620.173 156.224 620.369 155.869 620.761C155.527 621.152 155.294 621.66 155.172 622.284C155.062 622.895 155.007 623.654 155.007 624.559C155.007 625.489 155.062 626.272 155.172 626.908C155.282 627.532 155.515 628.039 155.869 628.431C156.224 628.81 156.744 629 157.429 629C158.114 629 158.634 628.81 158.989 628.431C159.344 628.039 159.576 627.532 159.686 626.908C159.796 626.272 159.851 625.489 159.851 624.559Z" fill="white"/>
<g clip-path="url(#clip1_2087_13670)">
<path fill-rule="evenodd" clip-rule="evenodd" d="M248.905 618.541H259.335C260.528 618.541 261.484 619.482 261.484 620.634V630.211C261.484 631.362 260.528 632.303 259.335 632.303H248.905C248.18 632.303 247.563 631.949 247.159 631.363L243.135 625.419L247.163 619.469C247.562 618.891 248.18 618.541 248.905 618.541ZM259.968 620.633C259.968 620.273 259.68 619.99 259.336 619.99H248.906C248.716 619.99 248.56 620.078 248.434 620.26L244.942 625.419L244.676 625.025V625.812L244.942 625.419L248.43 630.571C248.563 630.764 248.721 630.854 248.906 630.854H259.336C259.68 630.854 259.968 630.571 259.968 630.211V620.633Z" fill="white"/>
<path fill-rule="evenodd" clip-rule="evenodd" d="M257.315 627.726L256.311 628.682L253.77 626.259L251.228 628.682L250.225 627.726L252.766 625.302L250.225 622.878L251.228 621.922L253.77 624.345L256.311 621.922L257.315 622.878L254.773 625.302L257.315 627.726Z" fill="white"/>
</g>
<rect x="77.6042" y="396.431" width="35.935" height="35.935" rx="8.7926" stroke="#9898A0" stroke-width="0.764574"/>
<rect x="118.891" y="396.431" width="35.935" height="35.935" rx="8.7926" stroke="#9898A0" stroke-width="0.764574"/>
<rect x="160.178" y="396.431" width="35.935" height="35.935" rx="8.7926" stroke="#9898A0" stroke-width="0.764574"/>
<rect x="201.465" y="396.431" width="35.935" height="35.935" rx="8.7926" stroke="#9898A0" stroke-width="0.764574"/>
<path fill-rule="evenodd" clip-rule="evenodd" d="M157.505 99.3619C94.5782 99.3619 43.5662 150.178 43.5662 212.864C43.5662 246.013 57.8289 275.84 80.5816 296.595C81.5129 297.444 81.5766 298.885 80.7238 299.813C79.871 300.74 78.4248 300.804 77.4935 299.954C53.8346 278.373 38.9934 247.343 38.9934 212.864C38.9934 147.663 92.0528 94.8066 157.505 94.8066C222.957 94.8066 276.016 147.663 276.016 212.864C276.016 247.343 261.175 278.373 237.516 299.954C236.585 300.804 235.139 300.74 234.286 299.813C233.433 298.885 233.497 297.444 234.428 296.595C257.181 275.84 271.443 246.013 271.443 212.864C271.443 150.178 220.431 99.3619 157.505 99.3619Z" fill="white"/>
<path fill-rule="evenodd" clip-rule="evenodd" d="M81.5291 300.563C80.6843 301.498 79.2387 301.574 78.3001 300.732C29.6527 257.112 25.7135 182.465 69.5017 134.005C70.3465 133.07 71.7921 132.994 72.7307 133.836C73.6692 134.677 73.7452 136.117 72.9004 137.052C30.8018 183.643 34.5891 255.409 81.3594 297.346C82.2979 298.188 82.3739 299.628 81.5291 300.563Z" fill="#9898A0"/>
<ellipse cx="72.194" cy="135.05" rx="6.09705" ry="6.07367" fill="white"/>
<path d="M93.3065 307.073C92.807 307.073 92.3574 306.987 91.9578 306.816C91.5582 306.638 91.2442 306.388 91.0159 306.067C90.7875 305.746 90.6733 305.371 90.6733 304.943H91.9792C92.0078 305.264 92.1326 305.528 92.3539 305.735C92.5822 305.942 92.8998 306.045 93.3065 306.045C93.7275 306.045 94.0558 305.945 94.2913 305.746C94.5268 305.539 94.6445 305.275 94.6445 304.954C94.6445 304.704 94.5696 304.5 94.4197 304.343C94.277 304.186 94.095 304.065 93.8738 303.98C93.6598 303.894 93.36 303.801 92.9747 303.701C92.4894 303.573 92.0934 303.444 91.7865 303.316C91.4868 303.18 91.2299 302.973 91.0159 302.695C90.8018 302.417 90.6947 302.046 90.6947 301.582C90.6947 301.154 90.8018 300.779 91.0159 300.458C91.2299 300.137 91.5296 299.891 91.915 299.719C92.3003 299.548 92.7463 299.462 93.253 299.462C93.9737 299.462 94.5625 299.644 95.0192 300.008C95.483 300.365 95.7399 300.857 95.7899 301.485H94.4411C94.4197 301.214 94.2913 300.982 94.0558 300.79C93.8203 300.597 93.5099 300.501 93.1245 300.501C92.7749 300.501 92.4894 300.59 92.2682 300.768C92.047 300.947 91.9364 301.204 91.9364 301.539C91.9364 301.767 92.0042 301.956 92.1398 302.106C92.2825 302.249 92.4609 302.363 92.675 302.449C92.8891 302.534 93.1816 302.627 93.5527 302.727C94.0451 302.863 94.4447 302.998 94.7516 303.134C95.0655 303.269 95.3296 303.48 95.5437 303.765C95.7649 304.044 95.8755 304.418 95.8755 304.889C95.8755 305.268 95.772 305.624 95.5651 305.96C95.3653 306.295 95.0691 306.566 94.6766 306.773C94.2913 306.973 93.8346 307.073 93.3065 307.073ZM98.739 302.096V305.36C98.739 305.582 98.7889 305.742 98.8888 305.842C98.9959 305.935 99.1743 305.981 99.424 305.981H100.173V306.998H99.21C98.6605 306.998 98.2395 306.87 97.9469 306.613C97.6543 306.356 97.508 305.938 97.508 305.36V302.096H96.8123V301.1H97.508V299.634H98.739V301.1H100.173V302.096H98.739ZM100.891 304.022C100.891 303.43 101.013 302.906 101.255 302.449C101.505 301.992 101.84 301.639 102.261 301.389C102.69 301.132 103.161 301.004 103.674 301.004C104.138 301.004 104.541 301.097 104.884 301.282C105.234 301.46 105.512 301.685 105.719 301.956V301.1H106.95V306.998H105.719V306.12C105.512 306.399 105.23 306.631 104.873 306.816C104.516 307.002 104.11 307.094 103.653 307.094C103.146 307.094 102.682 306.966 102.261 306.709C101.84 306.445 101.505 306.081 101.255 305.617C101.013 305.146 100.891 304.615 100.891 304.022ZM105.719 304.044C105.719 303.637 105.633 303.284 105.462 302.984C105.298 302.684 105.08 302.456 104.809 302.299C104.538 302.142 104.245 302.063 103.931 302.063C103.617 302.063 103.325 302.142 103.053 302.299C102.782 302.449 102.561 302.674 102.39 302.973C102.226 303.266 102.144 303.616 102.144 304.022C102.144 304.429 102.226 304.786 102.39 305.093C102.561 305.4 102.782 305.635 103.053 305.799C103.332 305.956 103.624 306.035 103.931 306.035C104.245 306.035 104.538 305.956 104.809 305.799C105.08 305.642 105.298 305.414 105.462 305.114C105.633 304.807 105.719 304.45 105.719 304.044ZM109.773 301.956C109.951 301.657 110.187 301.425 110.479 301.261C110.779 301.089 111.132 301.004 111.539 301.004V302.267H111.229C110.75 302.267 110.386 302.388 110.137 302.631C109.894 302.873 109.773 303.294 109.773 303.894V306.998H108.552V301.1H109.773V301.956ZM114.084 302.096V305.36C114.084 305.582 114.134 305.742 114.234 305.842C114.341 305.935 114.52 305.981 114.769 305.981H115.519V306.998H114.555C114.006 306.998 113.585 306.87 113.292 306.613C113 306.356 112.853 305.938 112.853 305.36V302.096H112.157V301.1H112.853V299.634H114.084V301.1H115.519V302.096H114.084Z" fill="#999999"/>
<path d="M207.159 300.434V302.618H209.728V303.613H207.159V305.893H210.049V306.889H205.939V299.439H210.049V300.434H207.159ZM214.528 300.894C214.991 300.894 215.405 300.991 215.769 301.183C216.14 301.376 216.429 301.662 216.636 302.04C216.843 302.418 216.947 302.875 216.947 303.41V306.889H215.737V303.592C215.737 303.064 215.605 302.661 215.341 302.382C215.077 302.097 214.717 301.954 214.26 301.954C213.803 301.954 213.439 302.097 213.168 302.382C212.904 302.661 212.772 303.064 212.772 303.592V306.889H211.552V300.991H212.772V301.665C212.972 301.422 213.225 301.233 213.532 301.098C213.846 300.962 214.178 300.894 214.528 300.894ZM218.096 303.913C218.096 303.321 218.218 302.796 218.46 302.339C218.71 301.883 219.046 301.53 219.467 301.28C219.895 301.023 220.369 300.894 220.89 300.894C221.276 300.894 221.654 300.98 222.025 301.151C222.403 301.315 222.703 301.537 222.924 301.815V298.968H224.155V306.889H222.924V306C222.724 306.286 222.446 306.521 222.089 306.707C221.739 306.892 221.336 306.985 220.88 306.985C220.366 306.985 219.895 306.857 219.467 306.6C219.046 306.336 218.71 305.972 218.46 305.508C218.218 305.037 218.096 304.505 218.096 303.913ZM222.924 303.934C222.924 303.528 222.838 303.174 222.667 302.875C222.503 302.575 222.285 302.347 222.014 302.19C221.743 302.033 221.45 301.954 221.136 301.954C220.822 301.954 220.53 302.033 220.259 302.19C219.988 302.339 219.766 302.564 219.595 302.864C219.431 303.157 219.349 303.506 219.349 303.913C219.349 304.32 219.431 304.677 219.595 304.983C219.766 305.29 219.988 305.526 220.259 305.69C220.537 305.847 220.83 305.925 221.136 305.925C221.45 305.925 221.743 305.847 222.014 305.69C222.285 305.533 222.503 305.304 222.667 305.005C222.838 304.698 222.924 304.341 222.924 303.934Z" fill="#999999"/>
<path d="M151.793 233.901V244.574H149.653V240.033H145.08V244.574H142.94V233.901H145.08V238.289H149.653V233.901H151.793ZM154.986 235.094C154.609 235.094 154.293 234.976 154.038 234.742C153.793 234.497 153.671 234.196 153.671 233.84C153.671 233.483 153.793 233.187 154.038 232.953C154.293 232.708 154.609 232.586 154.986 232.586C155.363 232.586 155.674 232.708 155.919 232.953C156.174 233.187 156.301 233.483 156.301 233.84C156.301 234.196 156.174 234.497 155.919 234.742C155.674 234.976 155.363 235.094 154.986 235.094ZM156.041 236.103V244.574H153.901V236.103H156.041ZM162.851 235.98C163.86 235.98 164.676 236.302 165.298 236.944C165.919 237.576 166.23 238.463 166.23 239.604V244.574H164.09V239.895C164.09 239.222 163.921 238.707 163.585 238.351C163.249 237.984 162.79 237.8 162.209 237.8C161.617 237.8 161.148 237.984 160.802 238.351C160.465 238.707 160.297 239.222 160.297 239.895V244.574H158.156V236.103H160.297V237.158C160.583 236.791 160.945 236.505 161.383 236.302C161.832 236.087 162.321 235.98 162.851 235.98ZM170.759 237.861V241.959C170.759 242.245 170.825 242.454 170.957 242.586C171.1 242.709 171.335 242.77 171.661 242.77H172.655V244.574H171.309C169.505 244.574 168.603 243.698 168.603 241.944V237.861H167.593V236.103H168.603V234.008H170.759V236.103H172.655V237.861H170.759Z" fill="white"/>
<path d="M140.366 256.943V255.83H142.593V263.633H141.362V256.943H140.366ZM144.943 261.974C145.628 261.381 146.167 260.896 146.56 260.518C146.959 260.133 147.291 259.733 147.555 259.319C147.819 258.905 147.951 258.491 147.951 258.077C147.951 257.649 147.848 257.314 147.641 257.071C147.441 256.829 147.123 256.707 146.688 256.707C146.267 256.707 145.939 256.843 145.703 257.114C145.475 257.378 145.354 257.735 145.339 258.184H144.162C144.183 257.371 144.426 256.75 144.89 256.322C145.361 255.887 145.957 255.669 146.677 255.669C147.455 255.669 148.062 255.883 148.497 256.311C148.94 256.739 149.161 257.31 149.161 258.024C149.161 258.538 149.029 259.034 148.765 259.512C148.508 259.983 148.197 260.407 147.833 260.786C147.477 261.157 147.02 261.588 146.463 262.081L145.982 262.509H149.375V263.526H144.173V262.637L144.943 261.974ZM154.568 253.528L151.656 265.506H150.458L153.358 253.528H154.568ZM157.465 261.513C157.537 261.87 157.69 262.141 157.925 262.327C158.161 262.512 158.478 262.605 158.878 262.605C159.385 262.605 159.756 262.405 159.991 262.006C160.227 261.606 160.345 260.925 160.345 259.961C160.173 260.204 159.931 260.393 159.617 260.529C159.31 260.657 158.974 260.721 158.61 260.721C158.147 260.721 157.726 260.629 157.347 260.443C156.969 260.25 156.669 259.968 156.448 259.597C156.234 259.219 156.127 258.762 156.127 258.227C156.127 257.442 156.355 256.818 156.812 256.354C157.276 255.883 157.911 255.648 158.718 255.648C159.688 255.648 160.377 255.972 160.783 256.622C161.197 257.264 161.404 258.252 161.404 259.587C161.404 260.507 161.326 261.26 161.169 261.845C161.019 262.43 160.755 262.873 160.377 263.173C159.998 263.472 159.474 263.622 158.803 263.622C158.04 263.622 157.451 263.422 157.037 263.023C156.623 262.623 156.391 262.12 156.341 261.513H157.465ZM158.825 259.694C159.253 259.694 159.588 259.562 159.831 259.298C160.081 259.027 160.205 258.67 160.205 258.227C160.205 257.735 160.073 257.353 159.809 257.082C159.552 256.804 159.199 256.664 158.75 256.664C158.3 256.664 157.943 256.807 157.679 257.093C157.422 257.371 157.294 257.738 157.294 258.195C157.294 258.63 157.419 258.991 157.669 259.276C157.925 259.555 158.311 259.694 158.825 259.694ZM164.26 261.513C164.331 261.87 164.484 262.141 164.72 262.327C164.955 262.512 165.273 262.605 165.673 262.605C166.179 262.605 166.55 262.405 166.786 262.006C167.021 261.606 167.139 260.925 167.139 259.961C166.968 260.204 166.725 260.393 166.411 260.529C166.104 260.657 165.769 260.721 165.405 260.721C164.941 260.721 164.52 260.629 164.142 260.443C163.764 260.25 163.464 259.968 163.243 259.597C163.029 259.219 162.922 258.762 162.922 258.227C162.922 257.442 163.15 256.818 163.607 256.354C164.071 255.883 164.706 255.648 165.512 255.648C166.483 255.648 167.171 255.972 167.578 256.622C167.992 257.264 168.199 258.252 168.199 259.587C168.199 260.507 168.12 261.26 167.963 261.845C167.813 262.43 167.549 262.873 167.171 263.173C166.793 263.472 166.268 263.622 165.598 263.622C164.834 263.622 164.245 263.422 163.832 263.023C163.418 262.623 163.186 262.12 163.136 261.513H164.26ZM165.619 259.694C166.047 259.694 166.383 259.562 166.625 259.298C166.875 259.027 167 258.67 167 258.227C167 257.735 166.868 257.353 166.604 257.082C166.347 256.804 165.994 256.664 165.544 256.664C165.095 256.664 164.738 256.807 164.474 257.093C164.217 257.371 164.088 257.738 164.088 258.195C164.088 258.63 164.213 258.991 164.463 259.276C164.72 259.555 165.105 259.694 165.619 259.694ZM171.054 261.513C171.126 261.87 171.279 262.141 171.515 262.327C171.75 262.512 172.068 262.605 172.467 262.605C172.974 262.605 173.345 262.405 173.58 262.006C173.816 261.606 173.934 260.925 173.934 259.961C173.762 260.204 173.52 260.393 173.206 260.529C172.899 260.657 172.564 260.721 172.2 260.721C171.736 260.721 171.315 260.629 170.937 260.443C170.558 260.25 170.259 259.968 170.037 259.597C169.823 259.219 169.716 258.762 169.716 258.227C169.716 257.442 169.945 256.818 170.401 256.354C170.865 255.883 171.5 255.648 172.307 255.648C173.277 255.648 173.966 255.972 174.373 256.622C174.786 257.264 174.993 258.252 174.993 259.587C174.993 260.507 174.915 261.26 174.758 261.845C174.608 262.43 174.344 262.873 173.966 263.173C173.588 263.472 173.063 263.622 172.392 263.622C171.629 263.622 171.04 263.422 170.626 263.023C170.212 262.623 169.98 262.12 169.93 261.513H171.054ZM172.414 259.694C172.842 259.694 173.177 259.562 173.42 259.298C173.67 259.027 173.794 258.67 173.794 258.227C173.794 257.735 173.662 257.353 173.398 257.082C173.142 256.804 172.788 256.664 172.339 256.664C171.889 256.664 171.532 256.807 171.268 257.093C171.011 257.371 170.883 257.738 170.883 258.195C170.883 258.63 171.008 258.991 171.258 259.276C171.515 259.555 171.9 259.694 172.414 259.694Z" fill="#999999"/>
<path d="M85.8757 192.779C85.8757 192.063 85.8757 191.347 85.8757 190.632C85.9023 189.916 85.9288 189.214 85.9553 188.525C85.9818 187.835 86.0083 187.199 86.0348 186.616C85.6372 186.855 85.2529 187.08 84.8818 187.292C84.5107 187.478 84.1131 187.69 83.6891 187.928L80.747 189.479L78.5603 185.583L86.7504 181.289H90.766V209.676H85.8757V192.779ZM80.2301 209.676V206.257L85.9155 205.74H90.766L96.3321 206.257V209.676H80.2301ZM110.391 194.13C109.437 194.13 108.668 193.865 108.085 193.335C107.502 192.779 107.21 191.97 107.21 190.91C107.21 189.797 107.488 188.988 108.045 188.485C108.628 187.981 109.41 187.729 110.391 187.729C111.372 187.729 112.14 187.995 112.697 188.525C113.253 189.055 113.532 189.85 113.532 190.91C113.532 191.944 113.24 192.739 112.657 193.296C112.1 193.852 111.345 194.13 110.391 194.13ZM110.391 210.073C109.41 210.073 108.628 209.808 108.045 209.278C107.488 208.722 107.21 207.926 107.21 206.893C107.21 205.78 107.488 204.971 108.045 204.468C108.628 203.937 109.41 203.672 110.391 203.672C111.372 203.672 112.14 203.937 112.697 204.468C113.253 204.998 113.532 205.806 113.532 206.893C113.532 207.9 113.24 208.682 112.657 209.238C112.1 209.795 111.345 210.073 110.391 210.073ZM133.475 210.073C131.222 210.073 129.366 209.503 127.908 208.364C126.451 207.198 125.377 205.528 124.688 203.354C123.999 201.154 123.654 198.491 123.654 195.363C123.654 192.235 123.986 189.598 124.648 187.451C125.337 185.304 126.398 183.674 127.829 182.561C129.26 181.448 131.102 180.891 133.355 180.891C135.635 180.891 137.503 181.461 138.961 182.601C140.419 183.74 141.492 185.41 142.182 187.61C142.871 189.784 143.215 192.447 143.215 195.602C143.215 197.775 143.043 199.763 142.698 201.565C142.354 203.341 141.797 204.865 141.029 206.137C140.286 207.383 139.279 208.351 138.007 209.04C136.761 209.729 135.25 210.073 133.475 210.073ZM129.26 205.541L126.477 203.155L137.132 185.344L139.756 188.167L129.26 205.541ZM133.395 205.978C135.25 205.978 136.562 205.13 137.331 203.434C138.1 201.711 138.484 199.113 138.484 195.641C138.484 193.415 138.312 191.52 137.967 189.956C137.649 188.366 137.119 187.16 136.377 186.338C135.661 185.49 134.667 185.066 133.395 185.066C132.176 185.066 131.195 185.463 130.453 186.258C129.737 187.054 129.207 188.233 128.863 189.797C128.545 191.334 128.386 193.269 128.386 195.602C128.386 199.021 128.757 201.605 129.499 203.354C130.241 205.104 131.54 205.978 133.395 205.978ZM156.519 210.073C154.266 210.073 152.41 209.503 150.953 208.364C149.495 207.198 148.421 205.528 147.732 203.354C147.043 201.154 146.698 198.491 146.698 195.363C146.698 192.235 147.03 189.598 147.692 187.451C148.382 185.304 149.442 183.674 150.873 182.561C152.304 181.448 154.146 180.891 156.399 180.891C158.679 180.891 160.547 181.461 162.005 182.601C163.463 183.74 164.536 185.41 165.226 187.61C165.915 189.784 166.259 192.447 166.259 195.602C166.259 197.775 166.087 199.763 165.742 201.565C165.398 203.341 164.841 204.865 164.073 206.137C163.33 207.383 162.323 208.351 161.051 209.04C159.805 209.729 158.294 210.073 156.519 210.073ZM152.304 205.541L149.521 203.155L160.176 185.344L162.8 188.167L152.304 205.541ZM156.439 205.978C158.294 205.978 159.606 205.13 160.375 203.434C161.144 201.711 161.528 199.113 161.528 195.641C161.528 193.415 161.356 191.52 161.011 189.956C160.693 188.366 160.163 187.16 159.421 186.338C158.705 185.49 157.711 185.066 156.439 185.066C155.22 185.066 154.239 185.463 153.497 186.258C152.781 187.054 152.251 188.233 151.907 189.797C151.589 191.334 151.43 193.269 151.43 195.602C151.43 199.021 151.801 201.605 152.543 203.354C153.285 205.104 154.584 205.978 156.439 205.978ZM179.523 194.13C178.569 194.13 177.8 193.865 177.217 193.335C176.634 192.779 176.342 191.97 176.342 190.91C176.342 189.797 176.621 188.988 177.177 188.485C177.76 187.981 178.542 187.729 179.523 187.729C180.504 187.729 181.272 187.995 181.829 188.525C182.385 189.055 182.664 189.85 182.664 190.91C182.664 191.944 182.372 192.739 181.789 193.296C181.232 193.852 180.477 194.13 179.523 194.13ZM179.523 210.073C178.542 210.073 177.76 209.808 177.177 209.278C176.621 208.722 176.342 207.926 176.342 206.893C176.342 205.78 176.621 204.971 177.177 204.468C177.76 203.937 178.542 203.672 179.523 203.672C180.504 203.672 181.272 203.937 181.829 204.468C182.385 204.998 182.664 205.806 182.664 206.893C182.664 207.9 182.372 208.682 181.789 209.238C181.232 209.795 180.477 210.073 179.523 210.073ZM202.607 210.073C200.354 210.073 198.498 209.503 197.041 208.364C195.583 207.198 194.509 205.528 193.82 203.354C193.131 201.154 192.786 198.491 192.786 195.363C192.786 192.235 193.118 189.598 193.78 187.451C194.47 185.304 195.53 183.674 196.961 182.561C198.392 181.448 200.234 180.891 202.487 180.891C204.767 180.891 206.635 181.461 208.093 182.601C209.551 183.74 210.624 185.41 211.314 187.61C212.003 189.784 212.347 192.447 212.347 195.602C212.347 197.775 212.175 199.763 211.83 201.565C211.486 203.341 210.929 204.865 210.161 206.137C209.418 207.383 208.411 208.351 207.139 209.04C205.893 209.729 204.383 210.073 202.607 210.073ZM198.392 205.541L195.609 203.155L206.264 185.344L208.888 188.167L198.392 205.541ZM202.527 205.978C204.383 205.978 205.695 205.13 206.463 203.434C207.232 201.711 207.616 199.113 207.616 195.641C207.616 193.415 207.444 191.52 207.099 189.956C206.781 188.366 206.251 187.16 205.509 186.338C204.793 185.49 203.799 185.066 202.527 185.066C201.308 185.066 200.327 185.463 199.585 186.258C198.869 187.054 198.339 188.233 197.995 189.797C197.677 191.334 197.518 193.269 197.518 195.602C197.518 199.021 197.889 201.605 198.631 203.354C199.373 205.104 200.672 205.978 202.527 205.978ZM225.651 210.073C223.398 210.073 221.542 209.503 220.085 208.364C218.627 207.198 217.553 205.528 216.864 203.354C216.175 201.154 215.83 198.491 215.83 195.363C215.83 192.235 216.162 189.598 216.824 187.451C217.514 185.304 218.574 183.674 220.005 182.561C221.436 181.448 223.278 180.891 225.531 180.891C227.811 180.891 229.679 181.461 231.137 182.601C232.595 183.74 233.669 185.41 234.358 187.61C235.047 189.784 235.391 192.447 235.391 195.602C235.391 197.775 235.219 199.763 234.874 201.565C234.53 203.341 233.973 204.865 233.205 206.137C232.463 207.383 231.455 208.351 230.183 209.04C228.937 209.729 227.427 210.073 225.651 210.073ZM221.436 205.541L218.653 203.155L229.308 185.344L231.932 188.167L221.436 205.541ZM225.571 205.978C227.427 205.978 228.739 205.13 229.507 203.434C230.276 201.711 230.66 199.113 230.66 195.641C230.66 193.415 230.488 191.52 230.143 189.956C229.825 188.366 229.295 187.16 228.553 186.338C227.837 185.49 226.843 185.066 225.571 185.066C224.352 185.066 223.371 185.463 222.629 186.258C221.913 187.054 221.383 188.233 221.039 189.797C220.721 191.334 220.562 193.269 220.562 195.602C220.562 199.021 220.933 201.605 221.675 203.354C222.417 205.104 223.716 205.978 225.571 205.978Z" fill="white"/>
</g>
<defs>
<clipPath id="clip0_2087_13670">
<rect width="315.004" height="682" rx="13.7623" fill="white"/>
</clipPath>
<clipPath id="clip1_2087_13670">
<rect width="18.3498" height="18.3498" fill="white" transform="translate(243.135 616.246)"/>
</clipPath>
</defs>
</svg>
