<svg width="161" height="342" viewBox="0 0 161 342" fill="none" xmlns="http://www.w3.org/2000/svg">
<g clip-path="url(#clip0_2089_14110)">
<path d="M11.4692 14.6812H11.5215C11.7619 14.6812 11.9623 14.6498 12.1226 14.5871C12.2846 14.5227 12.4135 14.4338 12.5093 14.3206C12.6052 14.2073 12.674 14.0741 12.7158 13.9207C12.7576 13.7674 12.7785 13.601 12.7785 13.4216V12.7657C12.7785 12.6106 12.762 12.4747 12.7289 12.358C12.6975 12.2395 12.6522 12.1411 12.593 12.0627C12.5355 11.9826 12.4684 11.9224 12.3917 11.8824C12.3168 11.8423 12.2358 11.8223 12.1487 11.8223C12.0529 11.8223 11.9666 11.844 11.89 11.8876C11.8151 11.9294 11.7515 11.9878 11.6992 12.0627C11.6487 12.1359 11.6095 12.2221 11.5816 12.3214C11.5555 12.419 11.5424 12.5235 11.5424 12.635C11.5424 12.7395 11.5546 12.8406 11.579 12.9381C11.6051 13.034 11.6435 13.1193 11.694 13.1942C11.7445 13.2692 11.8081 13.3284 11.8848 13.372C11.9614 13.4155 12.0511 13.4373 12.1539 13.4373C12.2515 13.4373 12.3412 13.419 12.4231 13.3824C12.505 13.3441 12.5764 13.2927 12.6374 13.2282C12.6984 13.1638 12.7463 13.0915 12.7811 13.0113C12.816 12.9312 12.8351 12.8493 12.8386 12.7657L13.079 12.8388C13.079 12.9712 13.0512 13.1019 12.9954 13.2308C12.9414 13.358 12.8656 13.4747 12.768 13.581C12.6722 13.6855 12.5599 13.7692 12.4309 13.8319C12.3038 13.8946 12.1653 13.926 12.0154 13.926C11.8342 13.926 11.674 13.892 11.5346 13.8241C11.3969 13.7544 11.282 13.6603 11.1896 13.5418C11.099 13.4233 11.0311 13.2875 10.9858 13.1341C10.9405 12.9808 10.9178 12.8197 10.9178 12.6507C10.9178 12.4678 10.9457 12.2961 11.0015 12.1359C11.0572 11.9756 11.1382 11.8345 11.2445 11.7125C11.3508 11.5888 11.4797 11.493 11.6313 11.425C11.7846 11.3554 11.9579 11.3205 12.1513 11.3205C12.3569 11.3205 12.5372 11.3606 12.6923 11.4407C12.8473 11.5209 12.978 11.6315 13.0843 11.7726C13.1905 11.9137 13.2707 12.0775 13.3247 12.2639C13.3787 12.4503 13.4057 12.6507 13.4057 12.865V13.0871C13.4057 13.3118 13.3857 13.5287 13.3456 13.7378C13.3055 13.9451 13.2402 14.1376 13.1496 14.3153C13.0607 14.4913 12.9431 14.6464 12.7968 14.7805C12.6522 14.9129 12.4745 15.0166 12.2637 15.0915C12.0546 15.1647 11.809 15.2013 11.5267 15.2013H11.4692V14.6812ZM14.1543 14.8641C14.1543 14.7666 14.1874 14.6847 14.2537 14.6185C14.3199 14.5505 14.4096 14.5166 14.5228 14.5166C14.6378 14.5166 14.7275 14.5505 14.792 14.6185C14.8582 14.6847 14.8913 14.7666 14.8913 14.8641C14.8913 14.9617 14.8582 15.0436 14.792 15.1098C14.7275 15.176 14.6378 15.2091 14.5228 15.2091C14.4096 15.2091 14.3199 15.176 14.2537 15.1098C14.1874 15.0436 14.1543 14.9617 14.1543 14.8641ZM14.157 12.6376C14.157 12.5401 14.1901 12.4582 14.2563 12.392C14.3225 12.324 14.4122 12.29 14.5254 12.29C14.6404 12.29 14.7301 12.324 14.7946 12.392C14.8608 12.4582 14.8939 12.5401 14.8939 12.6376C14.8939 12.7352 14.8608 12.8171 14.7946 12.8833C14.7301 12.9495 14.6404 12.9826 14.5254 12.9826C14.4122 12.9826 14.3225 12.9495 14.2563 12.8833C14.1901 12.8171 14.157 12.7352 14.157 12.6376ZM16.3142 12.9904H16.6905C16.8368 12.9904 16.9579 12.9651 17.0537 12.9146C17.1513 12.8641 17.2236 12.7944 17.2706 12.7056C17.3177 12.6167 17.3412 12.5148 17.3412 12.3998C17.3412 12.2796 17.3194 12.1768 17.2759 12.0914C17.2341 12.0043 17.1696 11.9373 17.0825 11.8902C16.9971 11.8432 16.8882 11.8197 16.7558 11.8197C16.6443 11.8197 16.5433 11.8423 16.4527 11.8876C16.3638 11.9312 16.2933 11.9939 16.241 12.0758C16.1887 12.1559 16.1626 12.2517 16.1626 12.3632H15.5302C15.5302 12.1611 15.5833 11.9817 15.6896 11.8249C15.7959 11.6681 15.9405 11.5453 16.1234 11.4564C16.3081 11.3658 16.5154 11.3205 16.7454 11.3205C16.991 11.3205 17.2053 11.3615 17.3882 11.4433C17.5729 11.5235 17.7166 11.6437 17.8194 11.804C17.9222 11.9643 17.9736 12.1629 17.9736 12.3998C17.9736 12.5078 17.9484 12.6176 17.8978 12.7291C17.8473 12.8406 17.7724 12.9425 17.6731 13.0348C17.5738 13.1254 17.4501 13.1995 17.302 13.257C17.1539 13.3127 16.9823 13.3406 16.7872 13.3406H16.3142V12.9904ZM16.3142 13.4817V13.1368H16.7872C17.0102 13.1368 17.2001 13.1629 17.3569 13.2152C17.5154 13.2674 17.6443 13.3397 17.7436 13.4321C17.843 13.5227 17.9153 13.6263 17.9606 13.743C18.0076 13.8598 18.0311 13.9835 18.0311 14.1141C18.0311 14.2918 17.9989 14.4504 17.9344 14.5897C17.8717 14.7274 17.782 14.8441 17.6653 14.9399C17.5485 15.0357 17.4118 15.108 17.255 15.1568C17.0999 15.2056 16.9309 15.23 16.748 15.23C16.5842 15.23 16.4274 15.2074 16.2776 15.1621C16.1278 15.1168 15.9936 15.0497 15.8751 14.9608C15.7567 14.8702 15.6626 14.7579 15.5929 14.6237C15.525 14.4878 15.491 14.331 15.491 14.1533H16.1208C16.1208 14.2666 16.1469 14.3667 16.1992 14.4539C16.2532 14.5392 16.3281 14.6063 16.4239 14.6551C16.5215 14.7039 16.633 14.7282 16.7584 14.7282C16.8908 14.7282 17.005 14.7047 17.1008 14.6577C17.1966 14.6107 17.2698 14.541 17.3203 14.4486C17.3726 14.3563 17.3987 14.2448 17.3987 14.1141C17.3987 13.966 17.3699 13.8458 17.3125 13.7535C17.255 13.6612 17.1731 13.5932 17.0668 13.5497C16.9605 13.5044 16.8351 13.4817 16.6905 13.4817H16.3142ZM21.2023 12.9564V13.5784C21.2023 13.8763 21.1727 14.1307 21.1134 14.3415C21.0559 14.5505 20.9723 14.7204 20.8626 14.8511C20.7528 14.9817 20.6213 15.0776 20.468 15.1385C20.3164 15.1995 20.1465 15.23 19.9584 15.23C19.8085 15.23 19.6692 15.2108 19.5402 15.1725C19.4131 15.1342 19.2981 15.0741 19.1953 14.9922C19.0925 14.9103 19.0045 14.8049 18.9313 14.676C18.8599 14.5453 18.8042 14.3894 18.7641 14.2082C18.7258 14.027 18.7066 13.8171 18.7066 13.5784V12.9564C18.7066 12.6568 18.7362 12.4042 18.7954 12.1986C18.8547 11.9913 18.9392 11.8231 19.0489 11.6942C19.1587 11.5636 19.2894 11.4686 19.4409 11.4094C19.5942 11.3501 19.765 11.3205 19.9531 11.3205C20.1047 11.3205 20.2441 11.3397 20.3713 11.378C20.5002 11.4146 20.6152 11.473 20.7162 11.5531C20.819 11.6332 20.9061 11.7378 20.9775 11.8667C21.0507 11.9939 21.1065 12.1481 21.1448 12.3292C21.1831 12.5087 21.2023 12.7178 21.2023 12.9564ZM20.5725 13.6673V12.8624C20.5725 12.7108 20.5638 12.5775 20.5464 12.4625C20.5289 12.3458 20.5028 12.2474 20.468 12.1672C20.4349 12.0853 20.393 12.0191 20.3425 11.9686C20.292 11.9163 20.2345 11.8789 20.17 11.8562C20.1056 11.8319 20.0333 11.8197 19.9531 11.8197C19.8556 11.8197 19.7685 11.8388 19.6918 11.8771C19.6151 11.9137 19.5507 11.973 19.4984 12.0549C19.4462 12.1367 19.4061 12.2448 19.3782 12.3789C19.3521 12.5113 19.339 12.6725 19.339 12.8624V13.6673C19.339 13.8206 19.3477 13.9556 19.3651 14.0723C19.3826 14.189 19.4087 14.2892 19.4435 14.3728C19.4784 14.4547 19.5202 14.5227 19.569 14.5767C19.6195 14.6289 19.677 14.6673 19.7415 14.6917C19.8077 14.7161 19.88 14.7282 19.9584 14.7282C20.0577 14.7282 20.1456 14.7091 20.2223 14.6708C20.299 14.6324 20.3634 14.5715 20.4157 14.4878C20.468 14.4025 20.5072 14.2918 20.5333 14.1559C20.5594 14.02 20.5725 13.8572 20.5725 13.6673Z" fill="white"/>
<path opacity="0.1" d="M135.989 11.2188C134.689 11.2188 133.552 11.7874 132.74 12.681L135.989 16.6345L139.239 12.681C138.426 11.7874 137.289 11.2188 135.989 11.2188Z" fill="white"/>
<path d="M144.814 11.2188L139.398 16.6345H144.814V11.2188V11.2188Z" fill="white"/>
<path opacity="0.3" d="M149.369 11.0586H148.222V11.632H147.649C147.438 11.632 147.267 11.8246 147.267 12.0621V16.3628C147.267 16.6003 147.438 16.7929 147.649 16.7929H149.943C150.154 16.7929 150.325 16.6003 150.325 16.3628V12.0621C150.325 11.8246 150.154 11.632 149.943 11.632H149.369V11.0586Z" fill="white"/>
<path d="M147.267 14.1172C147.267 14.3402 147.267 16.1688 147.267 16.3918C147.267 16.6135 147.438 16.7932 147.649 16.7932H149.943C150.154 16.7932 150.325 16.6135 150.325 16.3918C150.325 16.1688 150.325 14.3402 150.325 14.1172H147.267Z" fill="white"/>
<path fill-rule="evenodd" clip-rule="evenodd" d="M80.5 7.88086C77.9667 7.88086 75.9126 9.93494 75.9126 12.4683C75.9126 15.0017 77.9667 17.0557 80.5 17.0557C83.0334 17.0557 85.0875 15.0017 85.0875 12.4683C85.0875 9.93494 83.0334 7.88086 80.5 7.88086Z" fill="white"/>
<path d="M63.2593 181.977V188.381H61.9748V185.656H59.2315V188.381H57.947V181.977H59.2315V184.61H61.9748V181.977H63.2593ZM65.175 182.692C64.9487 182.692 64.7591 182.622 64.6061 182.481C64.4593 182.335 64.3859 182.154 64.3859 181.94C64.3859 181.726 64.4593 181.549 64.6061 181.408C64.7591 181.261 64.9487 181.188 65.175 181.188C65.4013 181.188 65.5879 181.261 65.7346 181.408C65.8876 181.549 65.964 181.726 65.964 181.94C65.964 182.154 65.8876 182.335 65.7346 182.481C65.5879 182.622 65.4013 182.692 65.175 182.692ZM65.808 183.298V188.381H64.5236V183.298H65.808ZM69.8938 183.225C70.4994 183.225 70.9887 183.417 71.3618 183.803C71.7349 184.182 71.9215 184.714 71.9215 185.399V188.381H70.637V185.573C70.637 185.17 70.5361 184.861 70.3342 184.647C70.1324 184.426 69.8571 184.316 69.5085 184.316C69.1537 184.316 68.8723 184.426 68.6644 184.647C68.4625 184.861 68.3616 185.17 68.3616 185.573V188.381H67.0771V183.298H68.3616V183.931C68.5329 183.711 68.75 183.54 69.013 183.417C69.2822 183.289 69.5757 183.225 69.8938 183.225ZM74.6384 184.353V186.812C74.6384 186.983 74.6782 187.109 74.7577 187.188C74.8434 187.262 74.984 187.298 75.1798 187.298H75.7761V188.381H74.9687C73.8861 188.381 73.3448 187.855 73.3448 186.803V184.353H72.7392V183.298H73.3448V182.041H74.6384V183.298H75.7761V184.353H74.6384ZM78.5743 185.17C78.5743 184.54 78.7149 183.977 78.9963 183.481C79.2838 182.98 79.6722 182.592 80.1615 182.316C80.657 182.035 81.2105 181.894 81.8222 181.894C82.5378 181.894 83.1648 182.078 83.703 182.445C84.2413 182.812 84.6175 183.319 84.8315 183.968H83.3544C83.2076 183.662 82.9996 183.433 82.7305 183.28C82.4675 183.127 82.1616 183.05 81.813 183.05C81.4399 183.05 81.1065 183.139 80.8129 183.316C80.5255 183.488 80.2991 183.732 80.134 184.05C79.975 184.368 79.8954 184.741 79.8954 185.17C79.8954 185.592 79.975 185.965 80.134 186.289C80.2991 186.607 80.5255 186.855 80.8129 187.032C81.1065 187.203 81.4399 187.289 81.813 187.289C82.1616 187.289 82.4675 187.213 82.7305 187.06C82.9996 186.901 83.2076 186.668 83.3544 186.362H84.8315C84.6175 187.017 84.2413 187.528 83.703 187.895C83.1709 188.255 82.5439 188.436 81.8222 188.436C81.2105 188.436 80.657 188.298 80.1615 188.023C79.6722 187.742 79.2838 187.353 78.9963 186.858C78.7149 186.362 78.5743 185.8 78.5743 185.17ZM88.1857 188.463C87.6963 188.463 87.2559 188.356 86.8645 188.142C86.473 187.922 86.1641 187.613 85.9378 187.216C85.7176 186.818 85.6075 186.359 85.6075 185.839C85.6075 185.32 85.7207 184.861 85.947 184.463C86.1794 184.066 86.4944 183.76 86.892 183.546C87.2896 183.325 87.733 183.215 88.2224 183.215C88.7117 183.215 89.1551 183.325 89.5527 183.546C89.9503 183.76 90.2623 184.066 90.4886 184.463C90.721 184.861 90.8372 185.32 90.8372 185.839C90.8372 186.359 90.7179 186.818 90.4794 187.216C90.247 187.613 89.9289 187.922 89.5252 188.142C89.1276 188.356 88.6811 188.463 88.1857 188.463ZM88.1857 187.344C88.4181 187.344 88.6352 187.289 88.8371 187.179C89.0451 187.063 89.2102 186.891 89.3325 186.665C89.4549 186.439 89.516 186.164 89.516 185.839C89.516 185.356 89.3876 184.986 89.1307 184.729C88.8799 184.466 88.571 184.335 88.204 184.335C87.837 184.335 87.5281 184.466 87.2774 184.729C87.0327 184.986 86.9104 185.356 86.9104 185.839C86.9104 186.323 87.0296 186.696 87.2682 186.959C87.5128 187.216 87.8187 187.344 88.1857 187.344ZM91.4491 185.821C91.4491 185.307 91.5501 184.852 91.7519 184.454C91.9599 184.056 92.2412 183.751 92.596 183.537C92.9508 183.322 93.3453 183.215 93.7796 183.215C94.1099 183.215 94.4249 183.289 94.7246 183.436C95.0243 183.576 95.2628 183.766 95.4402 184.004V181.591H96.743V188.381H95.4402V187.629C95.2812 187.879 95.0579 188.081 94.7704 188.234C94.483 188.387 94.1496 188.463 93.7704 188.463C93.3422 188.463 92.9508 188.353 92.596 188.133C92.2412 187.913 91.9599 187.604 91.7519 187.206C91.5501 186.803 91.4491 186.341 91.4491 185.821ZM95.4494 185.839C95.4494 185.527 95.3882 185.261 95.2659 185.041C95.1436 184.815 94.9784 184.644 94.7704 184.527C94.5625 184.405 94.3392 184.344 94.1007 184.344C93.8621 184.344 93.6419 184.402 93.4401 184.518C93.2382 184.634 93.0731 184.806 92.9446 185.032C92.8223 185.252 92.7611 185.515 92.7611 185.821C92.7611 186.127 92.8223 186.396 92.9446 186.628C93.0731 186.855 93.2382 187.029 93.4401 187.151C93.648 187.274 93.8682 187.335 94.1007 187.335C94.3392 187.335 94.5625 187.277 94.7704 187.161C94.9784 187.038 95.1436 186.867 95.2659 186.647C95.3882 186.42 95.4494 186.151 95.4494 185.839ZM102.723 185.729C102.723 185.913 102.71 186.078 102.686 186.225H98.9701C99.0007 186.592 99.1291 186.879 99.3555 187.087C99.5818 187.295 99.8601 187.399 100.19 187.399C100.667 187.399 101.007 187.194 101.209 186.784H102.594C102.447 187.274 102.166 187.677 101.75 187.996C101.334 188.307 100.823 188.463 100.218 188.463C99.7286 188.463 99.2882 188.356 98.8967 188.142C98.5114 187.922 98.2086 187.613 97.9884 187.216C97.7743 186.818 97.6673 186.359 97.6673 185.839C97.6673 185.313 97.7743 184.852 97.9884 184.454C98.2025 184.056 98.5022 183.751 98.8875 183.537C99.2729 183.322 99.7163 183.215 100.218 183.215C100.701 183.215 101.132 183.319 101.512 183.527C101.897 183.735 102.194 184.032 102.402 184.417C102.616 184.797 102.723 185.234 102.723 185.729ZM101.392 185.362C101.386 185.032 101.267 184.769 101.034 184.573C100.802 184.371 100.518 184.271 100.181 184.271C99.8631 184.271 99.594 184.368 99.3738 184.564C99.1597 184.754 99.0282 185.02 98.9793 185.362H101.392Z" fill="white"/>
<path d="M31.1775 238.306V237.122H33.3886V243.811H32.0674V238.306H31.1775Z" fill="white"/>
<path d="M78.1409 242.361C78.7281 241.872 79.1961 241.465 79.5447 241.141C79.8933 240.81 80.1839 240.468 80.4163 240.113C80.6487 239.758 80.765 239.41 80.765 239.067C80.765 238.755 80.6916 238.511 80.5448 238.333C80.398 238.156 80.1716 238.067 79.8658 238.067C79.56 238.067 79.3245 238.171 79.1594 238.379C78.9942 238.581 78.9086 238.859 78.9025 239.214H77.6547C77.6791 238.48 77.8963 237.923 78.3061 237.544C78.722 237.165 79.248 236.975 79.8842 236.975C80.5815 236.975 81.1167 237.162 81.4898 237.535C81.8629 237.902 82.0494 238.388 82.0494 238.994C82.0494 239.471 81.921 239.927 81.6641 240.361C81.4072 240.795 81.1136 241.174 80.7833 241.498C80.453 241.817 80.0218 242.202 79.4896 242.655H82.1962V243.719H77.6638V242.765L78.1409 242.361Z" fill="white"/>
<path d="M125.159 238.884C125.189 238.272 125.404 237.801 125.801 237.471C126.205 237.134 126.734 236.966 127.388 236.966C127.835 236.966 128.217 237.046 128.535 237.205C128.853 237.358 129.092 237.569 129.251 237.838C129.416 238.101 129.499 238.4 129.499 238.737C129.499 239.122 129.398 239.449 129.196 239.719C129 239.982 128.765 240.159 128.489 240.251V240.287C128.844 240.397 129.119 240.593 129.315 240.875C129.517 241.156 129.618 241.517 129.618 241.957C129.618 242.324 129.532 242.651 129.361 242.939C129.196 243.226 128.948 243.453 128.618 243.618C128.294 243.777 127.902 243.856 127.443 243.856C126.752 243.856 126.19 243.682 125.755 243.333C125.321 242.985 125.092 242.471 125.067 241.792H126.315C126.327 242.092 126.428 242.333 126.618 242.517C126.813 242.694 127.08 242.783 127.416 242.783C127.728 242.783 127.966 242.697 128.132 242.526C128.303 242.349 128.388 242.122 128.388 241.847C128.388 241.48 128.272 241.217 128.04 241.058C127.807 240.899 127.447 240.82 126.957 240.82H126.691V239.764H126.957C127.826 239.764 128.26 239.474 128.26 238.893C128.26 238.63 128.181 238.425 128.021 238.278C127.869 238.131 127.645 238.058 127.352 238.058C127.064 238.058 126.841 238.137 126.682 238.296C126.529 238.449 126.44 238.645 126.416 238.884H125.159Z" fill="white"/>
<path d="M29.7784 266.975V265.965L32.7786 261.671H34.2741V265.855H35.0815V266.975H34.2741V268.277H32.9896V266.975H29.7784ZM33.0722 263.048L31.1913 265.855H33.0722V263.048Z" fill="white"/>
<path d="M82.2329 262.699H79.2603V264.268C79.3887 264.109 79.5722 263.98 79.8108 263.883C80.0493 263.779 80.3032 263.727 80.5723 263.727C81.0616 263.727 81.4623 263.834 81.7742 264.048C82.0861 264.262 82.3125 264.537 82.4531 264.873C82.5938 265.204 82.6642 265.559 82.6642 265.938C82.6642 266.641 82.4623 267.207 82.0586 267.635C81.661 268.063 81.0922 268.277 80.3521 268.277C79.6548 268.277 79.0982 268.103 78.6823 267.754C78.2663 267.406 78.0308 266.95 77.9758 266.387H79.2236C79.2786 266.632 79.401 266.828 79.5906 266.975C79.7863 267.121 80.034 267.195 80.3337 267.195C80.6946 267.195 80.9668 267.082 81.1503 266.855C81.3338 266.629 81.4256 266.329 81.4256 265.956C81.4256 265.577 81.3307 265.289 81.1411 265.094C80.9576 264.892 80.6854 264.791 80.3246 264.791C80.0677 264.791 79.8536 264.855 79.6823 264.984C79.5111 265.112 79.3887 265.283 79.3153 265.497H78.0859V261.571H82.2329V262.699Z" fill="white"/>
<path d="M128.609 263.259C128.548 263.002 128.44 262.809 128.288 262.681C128.141 262.552 127.927 262.488 127.645 262.488C127.223 262.488 126.911 262.659 126.709 263.002C126.514 263.338 126.413 263.889 126.407 264.653C126.553 264.409 126.768 264.219 127.049 264.084C127.33 263.944 127.636 263.873 127.966 263.873C128.364 263.873 128.716 263.959 129.022 264.13C129.327 264.302 129.566 264.552 129.737 264.883C129.908 265.207 129.994 265.598 129.994 266.057C129.994 266.491 129.905 266.88 129.728 267.222C129.557 267.559 129.303 267.822 128.966 268.011C128.63 268.201 128.229 268.296 127.765 268.296C127.128 268.296 126.627 268.155 126.26 267.874C125.899 267.592 125.645 267.201 125.498 266.699C125.358 266.192 125.287 265.568 125.287 264.828C125.287 263.708 125.48 262.864 125.865 262.295C126.251 261.72 126.859 261.433 127.691 261.433C128.333 261.433 128.832 261.607 129.187 261.956C129.541 262.304 129.746 262.739 129.801 263.259H128.609ZM127.673 264.929C127.349 264.929 127.076 265.023 126.856 265.213C126.636 265.403 126.526 265.678 126.526 266.039C126.526 266.4 126.627 266.684 126.829 266.892C127.037 267.1 127.327 267.204 127.7 267.204C128.031 267.204 128.291 267.103 128.48 266.901C128.676 266.699 128.774 266.427 128.774 266.085C128.774 265.73 128.679 265.448 128.489 265.24C128.306 265.032 128.034 264.929 127.673 264.929Z" fill="white"/>
<path d="M34.5906 287.028L32.1501 292.744H30.8472L33.3061 287.175H30.1683V286.074H34.5906V287.028Z" fill="white"/>
<path d="M78.8566 289.203C78.2449 288.885 77.9391 288.392 77.9391 287.725C77.9391 287.395 78.0217 287.095 78.1868 286.826C78.3581 286.551 78.6119 286.334 78.9483 286.175C79.2909 286.01 79.7068 285.927 80.1961 285.927C80.6854 285.927 81.0983 286.01 81.4347 286.175C81.7773 286.334 82.0311 286.551 82.1962 286.826C82.3675 287.095 82.4531 287.395 82.4531 287.725C82.4531 288.062 82.3706 288.359 82.2054 288.615C82.0403 288.866 81.8201 289.062 81.5448 289.203C81.8812 289.349 82.1443 289.564 82.3339 289.845C82.5235 290.126 82.6183 290.46 82.6183 290.845C82.6183 291.261 82.5112 291.625 82.2972 291.937C82.0892 292.243 81.8017 292.478 81.4347 292.643C81.0677 292.808 80.6549 292.891 80.1961 292.891C79.7374 292.891 79.3245 292.808 78.9575 292.643C78.5966 292.478 78.3091 292.243 78.0951 291.937C77.8871 291.625 77.7831 291.261 77.7831 290.845C77.7831 290.46 77.8779 290.126 78.0675 289.845C78.2572 289.557 78.5202 289.343 78.8566 289.203ZM81.2054 287.909C81.2054 287.609 81.1136 287.377 80.9301 287.212C80.7527 287.047 80.5081 286.964 80.1961 286.964C79.8903 286.964 79.6456 287.047 79.4621 287.212C79.2847 287.377 79.1961 287.612 79.1961 287.918C79.1961 288.193 79.2878 288.414 79.4713 288.579C79.6609 288.744 79.9025 288.826 80.1961 288.826C80.4897 288.826 80.7313 288.744 80.9209 288.579C81.1105 288.407 81.2054 288.184 81.2054 287.909ZM80.1961 289.762C79.8475 289.762 79.563 289.851 79.3429 290.028C79.1288 290.206 79.0217 290.46 79.0217 290.79C79.0217 291.096 79.1257 291.346 79.3337 291.542C79.5478 291.732 79.8352 291.827 80.1961 291.827C80.557 291.827 80.8414 291.729 81.0494 291.533C81.2573 291.337 81.3613 291.09 81.3613 290.79C81.3613 290.466 81.2543 290.215 81.0402 290.038C80.8261 289.854 80.5448 289.762 80.1961 289.762Z" fill="white"/>
<path d="M126.627 290.863C126.676 291.132 126.786 291.34 126.957 291.487C127.135 291.628 127.37 291.698 127.664 291.698C128.043 291.698 128.318 291.542 128.489 291.23C128.661 290.912 128.746 290.38 128.746 289.634C128.606 289.83 128.407 289.982 128.15 290.093C127.899 290.203 127.627 290.258 127.333 290.258C126.942 290.258 126.587 290.178 126.269 290.019C125.957 289.854 125.709 289.612 125.526 289.294C125.342 288.97 125.251 288.579 125.251 288.12C125.251 287.441 125.453 286.903 125.856 286.505C126.26 286.102 126.81 285.9 127.508 285.9C128.376 285.9 128.988 286.178 129.343 286.735C129.704 287.291 129.884 288.129 129.884 289.249C129.884 290.044 129.814 290.695 129.673 291.203C129.538 291.71 129.303 292.096 128.966 292.359C128.636 292.622 128.184 292.753 127.609 292.753C127.156 292.753 126.771 292.668 126.453 292.496C126.135 292.319 125.89 292.09 125.719 291.808C125.553 291.521 125.459 291.206 125.434 290.863H126.627ZM127.599 289.212C127.917 289.212 128.168 289.114 128.352 288.918C128.535 288.722 128.627 288.459 128.627 288.129C128.627 287.768 128.529 287.49 128.333 287.294C128.144 287.092 127.884 286.991 127.554 286.991C127.223 286.991 126.96 287.095 126.765 287.303C126.575 287.505 126.48 287.774 126.48 288.111C126.48 288.435 126.572 288.701 126.755 288.909C126.945 289.111 127.226 289.212 127.599 289.212Z" fill="white"/>
<path d="M77.7372 313.778C77.7372 312.719 77.9269 311.891 78.3061 311.291C78.6914 310.692 79.3276 310.392 80.2145 310.392C81.1014 310.392 81.7344 310.692 82.1137 311.291C82.499 311.891 82.6917 312.719 82.6917 313.778C82.6917 314.842 82.499 315.677 82.1137 316.282C81.7344 316.888 81.1014 317.191 80.2145 317.191C79.3276 317.191 78.6914 316.888 78.3061 316.282C77.9269 315.677 77.7372 314.842 77.7372 313.778ZM81.4256 313.778C81.4256 313.325 81.395 312.946 81.3338 312.64C81.2788 312.328 81.1625 312.074 80.9852 311.878C80.8139 311.683 80.557 311.585 80.2145 311.585C79.8719 311.585 79.612 311.683 79.4346 311.878C79.2633 312.074 79.1471 312.328 79.086 312.64C79.0309 312.946 79.0034 313.325 79.0034 313.778C79.0034 314.242 79.0309 314.634 79.086 314.952C79.141 315.264 79.2572 315.518 79.4346 315.713C79.612 315.903 79.8719 315.998 80.2145 315.998C80.557 315.998 80.8169 315.903 80.9943 315.713C81.1717 315.518 81.2879 315.264 81.343 314.952C81.398 314.634 81.4256 314.242 81.4256 313.778Z" fill="white"/>
<g clip-path="url(#clip1_2089_14110)">
<path fill-rule="evenodd" clip-rule="evenodd" d="M125.953 310.27H131.168C131.764 310.27 132.242 310.74 132.242 311.316V316.104C132.242 316.68 131.764 317.151 131.168 317.151H125.953C125.59 317.151 125.282 316.973 125.08 316.681L123.067 313.708L125.081 310.733C125.281 310.444 125.59 310.27 125.953 310.27ZM131.484 311.316C131.484 311.135 131.34 310.994 131.168 310.994H125.953C125.858 310.994 125.78 311.038 125.717 311.129L123.971 313.708L123.838 313.512V313.905L123.971 313.708L125.715 316.285C125.782 316.381 125.86 316.426 125.953 316.426H131.168C131.34 316.426 131.484 316.285 131.484 316.104V311.316Z" fill="white"/>
<path fill-rule="evenodd" clip-rule="evenodd" d="M130.157 314.862L129.656 315.34L128.385 314.128L127.114 315.34L126.612 314.862L127.883 313.65L126.612 312.438L127.114 311.96L128.385 313.172L129.656 311.96L130.157 312.438L128.887 313.65L130.157 314.862Z" fill="white"/>
</g>
<rect x="40.302" y="199.215" width="17.9675" height="17.9675" rx="4.3963" stroke="#9898A0" stroke-width="0.382287"/>
<rect x="60.9455" y="199.215" width="17.9675" height="17.9675" rx="4.3963" stroke="#9898A0" stroke-width="0.382287"/>
<rect x="81.5891" y="199.215" width="17.9675" height="17.9675" rx="4.3963" stroke="#9898A0" stroke-width="0.382287"/>
<rect x="102.233" y="199.215" width="17.9675" height="17.9675" rx="4.3963" stroke="#9898A0" stroke-width="0.382287"/>
<path fill-rule="evenodd" clip-rule="evenodd" d="M80.2523 50.68C48.789 50.68 23.283 76.0882 23.283 107.431C23.283 124.005 30.4143 138.919 41.7907 149.296C42.2563 149.721 42.2882 150.442 41.8618 150.905C41.4354 151.369 40.7123 151.401 40.2466 150.976C28.4172 140.186 20.9966 124.671 20.9966 107.431C20.9966 74.8303 47.5263 48.4023 80.2523 48.4023C112.978 48.4023 139.508 74.8303 139.508 107.431C139.508 124.671 132.087 140.186 120.258 150.976C119.792 151.401 119.069 151.369 118.643 150.905C118.216 150.442 118.248 149.721 118.714 149.296C130.09 138.919 137.222 124.005 137.222 107.431C137.222 76.0882 111.716 50.68 80.2523 50.68Z" fill="white"/>
<path fill-rule="evenodd" clip-rule="evenodd" d="M42.2643 151.281C41.8419 151.748 41.1191 151.786 40.6498 151.365C16.3261 129.555 14.3565 92.2317 36.2506 68.0013C36.673 67.5339 37.3958 67.496 37.8651 67.9168C38.3344 68.3376 38.3724 69.0576 37.95 69.5251C16.9007 92.8206 18.7943 128.704 42.1795 149.672C42.6487 150.093 42.6867 150.813 42.2643 151.281Z" fill="#9898A0"/>
<ellipse cx="37.5969" cy="68.5232" rx="3.04853" ry="3.03683" fill="white"/>
<path d="M48.1534 155.036C47.9036 155.036 47.6788 154.993 47.479 154.907C47.2792 154.818 47.1222 154.693 47.008 154.532C46.8939 154.372 46.8368 154.185 46.8368 153.97H47.4897C47.504 154.131 47.5664 154.263 47.6771 154.367C47.7912 154.47 47.95 154.522 48.1534 154.522C48.3639 154.522 48.528 154.472 48.6458 154.372C48.7635 154.268 48.8224 154.136 48.8224 153.976C48.8224 153.851 48.7849 153.749 48.71 153.671C48.6386 153.592 48.5476 153.532 48.437 153.489C48.33 153.446 48.1801 153.4 47.9875 153.35C47.7448 153.285 47.5468 153.221 47.3934 153.157C47.2435 153.089 47.1151 152.986 47.008 152.847C46.901 152.707 46.8475 152.522 46.8475 152.29C46.8475 152.076 46.901 151.889 47.008 151.728C47.1151 151.567 47.2649 151.444 47.4576 151.359C47.6503 151.273 47.8733 151.23 48.1266 151.23C48.487 151.23 48.7814 151.321 49.0097 151.503C49.2416 151.682 49.3701 151.928 49.395 152.242H48.7207C48.71 152.106 48.6458 151.99 48.528 151.894C48.4103 151.798 48.2551 151.749 48.0624 151.749C47.8876 151.749 47.7448 151.794 47.6342 151.883C47.5236 151.972 47.4683 152.101 47.4683 152.269C47.4683 152.383 47.5022 152.477 47.57 152.552C47.6414 152.624 47.7306 152.681 47.8376 152.723C47.9447 152.766 48.0909 152.813 48.2765 152.863C48.5227 152.93 48.7225 152.998 48.8759 153.066C49.0329 153.134 49.1649 153.239 49.272 153.382C49.3826 153.521 49.4379 153.708 49.4379 153.944C49.4379 154.133 49.3861 154.311 49.2827 154.479C49.1828 154.647 49.0347 154.782 48.8384 154.886C48.6458 154.986 48.4174 155.036 48.1534 155.036ZM50.8696 152.547V154.179C50.8696 154.29 50.8946 154.37 50.9445 154.42C50.9981 154.466 51.0873 154.49 51.2121 154.49H51.5868V154.998H51.1051C50.8304 154.998 50.6199 154.934 50.4736 154.805C50.3273 154.677 50.2541 154.468 50.2541 154.179V152.547H49.9063V152.049H50.2541V151.316H50.8696V152.049H51.5868V152.547H50.8696ZM51.9457 153.51C51.9457 153.214 52.0064 152.952 52.1277 152.723C52.2526 152.495 52.4203 152.318 52.6308 152.194C52.8449 152.065 53.0804 152.001 53.3373 152.001C53.5692 152.001 53.7708 152.047 53.942 152.14C54.1169 152.229 54.256 152.342 54.3595 152.477V152.049H54.975V154.998H54.3595V154.559C54.256 154.698 54.1151 154.814 53.9367 154.907C53.7583 155 53.5549 155.046 53.3266 155.046C53.0732 155.046 52.8413 154.982 52.6308 154.854C52.4203 154.722 52.2526 154.54 52.1277 154.308C52.0064 154.072 51.9457 153.806 51.9457 153.51ZM54.3595 153.521C54.3595 153.318 54.3167 153.141 54.2311 152.991C54.149 152.841 54.0402 152.727 53.9046 152.649C53.769 152.57 53.6227 152.531 53.4657 152.531C53.3087 152.531 53.1624 152.57 53.0269 152.649C52.8913 152.723 52.7807 152.836 52.695 152.986C52.613 153.132 52.5719 153.307 52.5719 153.51C52.5719 153.714 52.613 153.892 52.695 154.045C52.7807 154.199 52.8913 154.317 53.0269 154.399C53.166 154.477 53.3123 154.516 53.4657 154.516C53.6227 154.516 53.769 154.477 53.9046 154.399C54.0402 154.32 54.149 154.206 54.2311 154.056C54.3167 153.903 54.3595 153.724 54.3595 153.521ZM56.3865 152.477C56.4757 152.327 56.5934 152.211 56.7397 152.129C56.8896 152.044 57.0662 152.001 57.2696 152.001V152.632H57.1144C56.8753 152.632 56.6933 152.693 56.5685 152.814C56.4472 152.936 56.3865 153.146 56.3865 153.446V154.998H55.7764V152.049H56.3865V152.477ZM58.5422 152.547V154.179C58.5422 154.29 58.5672 154.37 58.6172 154.42C58.6707 154.466 58.7599 154.49 58.8848 154.49H59.2594V154.998H58.7777C58.503 154.998 58.2925 154.934 58.1462 154.805C57.9999 154.677 57.9268 154.468 57.9268 154.179V152.547H57.5789V152.049H57.9268V151.316H58.5422V152.049H59.2594V152.547H58.5422Z" fill="#999999"/>
<path d="M105.079 150.716V151.808H106.364V152.306H105.079V153.446H106.524V153.943H104.469V150.218H106.524V150.716H105.079ZM108.764 150.946C108.996 150.946 109.203 150.994 109.385 151.091C109.57 151.187 109.715 151.33 109.818 151.519C109.922 151.708 109.973 151.936 109.973 152.204V153.943H109.369V152.295C109.369 152.031 109.303 151.829 109.171 151.69C109.039 151.547 108.858 151.476 108.63 151.476C108.402 151.476 108.22 151.547 108.084 151.69C107.952 151.829 107.886 152.031 107.886 152.295V153.943H107.276V150.994H107.886V151.332C107.986 151.21 108.113 151.116 108.266 151.048C108.423 150.98 108.589 150.946 108.764 150.946ZM110.548 152.455C110.548 152.159 110.609 151.897 110.73 151.669C110.855 151.44 111.023 151.264 111.233 151.139C111.447 151.01 111.685 150.946 111.945 150.946C112.138 150.946 112.327 150.989 112.512 151.075C112.702 151.157 112.851 151.267 112.962 151.407V149.983H113.577V153.943H112.962V153.499C112.862 153.642 112.723 153.76 112.545 153.852C112.37 153.945 112.168 153.992 111.94 153.992C111.683 153.992 111.447 153.927 111.233 153.799C111.023 153.667 110.855 153.485 110.73 153.253C110.609 153.017 110.548 152.752 110.548 152.455ZM112.962 152.466C112.962 152.263 112.919 152.086 112.834 151.936C112.751 151.786 112.643 151.672 112.507 151.594C112.371 151.515 112.225 151.476 112.068 151.476C111.911 151.476 111.765 151.515 111.629 151.594C111.494 151.669 111.383 151.781 111.298 151.931C111.215 152.077 111.174 152.252 111.174 152.455C111.174 152.659 111.215 152.837 111.298 152.991C111.383 153.144 111.494 153.262 111.629 153.344C111.769 153.422 111.915 153.462 112.068 153.462C112.225 153.462 112.371 153.422 112.507 153.344C112.643 153.265 112.751 153.151 112.834 153.001C112.919 152.848 112.962 152.67 112.962 152.466Z" fill="#999999"/>
<path d="M77.3968 117.95V123.287H76.3264V121.016H74.0403V123.287H72.9699V117.95H74.0403V120.145H76.3264V117.95H77.3968ZM78.9932 118.547C78.8046 118.547 78.6466 118.488 78.5192 118.371C78.3969 118.249 78.3357 118.098 78.3357 117.92C78.3357 117.741 78.3969 117.594 78.5192 117.476C78.6466 117.354 78.8046 117.293 78.9932 117.293C79.1818 117.293 79.3373 117.354 79.4596 117.476C79.587 117.594 79.6508 117.741 79.6508 117.92C79.6508 118.098 79.587 118.249 79.4596 118.371C79.3373 118.488 79.1818 118.547 78.9932 118.547ZM79.5208 119.051V123.287H78.4504V119.051H79.5208ZM82.9256 118.99C83.4302 118.99 83.838 119.151 84.1489 119.472C84.4598 119.788 84.6153 120.231 84.6153 120.802V123.287H83.5449V120.948C83.5449 120.611 83.4608 120.354 83.2926 120.175C83.1244 119.992 82.895 119.9 82.6045 119.9C82.3088 119.9 82.0744 119.992 81.9011 120.175C81.7329 120.354 81.6487 120.611 81.6487 120.948V123.287H80.5783V119.051H81.6487V119.579C81.7915 119.395 81.9724 119.253 82.1916 119.151C82.4159 119.044 82.6605 118.99 82.9256 118.99ZM86.8795 119.931V121.98C86.8795 122.122 86.9126 122.227 86.9788 122.293C87.0502 122.354 87.1674 122.385 87.3305 122.385H87.8275V123.287H87.1547C86.2525 123.287 85.8014 122.849 85.8014 121.972V119.931H85.2968V119.051H85.8014V118.004H86.8795V119.051H87.8275V119.931H86.8795Z" fill="white"/>
<path d="M71.6832 129.471V128.915H72.7964V132.816H72.181V129.471H71.6832ZM73.9718 131.987C74.3143 131.691 74.5837 131.448 74.78 131.259C74.9798 131.066 75.1457 130.866 75.2777 130.66C75.4097 130.453 75.4757 130.246 75.4757 130.039C75.4757 129.825 75.424 129.657 75.3205 129.536C75.2206 129.414 75.0618 129.354 74.8442 129.354C74.6337 129.354 74.4695 129.421 74.3518 129.557C74.2376 129.689 74.177 129.867 74.1698 130.092H73.5811C73.5918 129.685 73.7131 129.375 73.945 129.161C74.1805 128.943 74.4785 128.835 74.8388 128.835C75.2277 128.835 75.531 128.942 75.7487 129.156C75.9699 129.37 76.0805 129.655 76.0805 130.012C76.0805 130.269 76.0145 130.517 75.8825 130.756C75.754 130.991 75.5988 131.204 75.4168 131.393C75.2384 131.578 75.0101 131.794 74.7318 132.04L74.4909 132.254H76.1875V132.763H73.5865V132.319L73.9718 131.987ZM78.7841 127.764L77.3283 133.753H76.7289L78.1793 127.764H78.7841ZM80.2327 131.757C80.2684 131.935 80.3451 132.071 80.4628 132.163C80.5806 132.256 80.7394 132.303 80.9392 132.303C81.1925 132.303 81.378 132.203 81.4958 132.003C81.6135 131.803 81.6724 131.462 81.6724 130.981C81.5868 131.102 81.4654 131.197 81.3085 131.264C81.155 131.329 80.9873 131.361 80.8054 131.361C80.5734 131.361 80.3629 131.314 80.1738 131.222C79.9847 131.125 79.8349 130.984 79.7243 130.799C79.6172 130.61 79.5637 130.381 79.5637 130.114C79.5637 129.721 79.6779 129.409 79.9062 129.177C80.1381 128.942 80.4557 128.824 80.8589 128.824C81.3441 128.824 81.6884 128.986 81.8918 129.311C82.0988 129.632 82.2022 130.126 82.2022 130.793C82.2022 131.254 82.163 131.63 82.0845 131.923C82.0096 132.215 81.8775 132.436 81.6884 132.586C81.4993 132.736 81.2371 132.811 80.9017 132.811C80.5199 132.811 80.2256 132.711 80.0186 132.511C79.8117 132.312 79.6957 132.06 79.6707 131.757H80.2327ZM80.9124 130.847C81.1265 130.847 81.2942 130.781 81.4155 130.649C81.5404 130.513 81.6028 130.335 81.6028 130.114C81.6028 129.867 81.5368 129.677 81.4048 129.541C81.2763 129.402 81.0997 129.332 80.8749 129.332C80.6502 129.332 80.4718 129.404 80.3397 129.546C80.2113 129.685 80.1471 129.869 80.1471 130.098C80.1471 130.315 80.2095 130.495 80.3344 130.638C80.4628 130.777 80.6555 130.847 80.9124 130.847ZM83.63 131.757C83.6657 131.935 83.7424 132.071 83.8601 132.163C83.9779 132.256 84.1366 132.303 84.3364 132.303C84.5898 132.303 84.7753 132.203 84.893 132.003C85.0108 131.803 85.0697 131.462 85.0697 130.981C84.984 131.102 84.8627 131.197 84.7057 131.264C84.5523 131.329 84.3846 131.361 84.2026 131.361C83.9707 131.361 83.7602 131.314 83.5711 131.222C83.382 131.125 83.2321 130.984 83.1215 130.799C83.0145 130.61 82.961 130.381 82.961 130.114C82.961 129.721 83.0751 129.409 83.3035 129.177C83.5354 128.942 83.853 128.824 84.2562 128.824C84.7414 128.824 85.0857 128.986 85.2891 129.311C85.496 129.632 85.5995 130.126 85.5995 130.793C85.5995 131.254 85.5603 131.63 85.4818 131.923C85.4068 132.215 85.2748 132.436 85.0857 132.586C84.8966 132.736 84.6344 132.811 84.299 132.811C83.9172 132.811 83.6228 132.711 83.4159 132.511C83.2089 132.312 83.093 132.06 83.068 131.757H83.63ZM84.3097 130.847C84.5238 130.847 84.6915 130.781 84.8128 130.649C84.9376 130.513 85.0001 130.335 85.0001 130.114C85.0001 129.867 84.9341 129.677 84.8021 129.541C84.6736 129.402 84.497 129.332 84.2722 129.332C84.0474 129.332 83.869 129.404 83.737 129.546C83.6086 129.685 83.5443 129.869 83.5443 130.098C83.5443 130.315 83.6068 130.495 83.7317 130.638C83.8601 130.777 84.0528 130.847 84.3097 130.847ZM87.0272 131.757C87.0629 131.935 87.1396 132.071 87.2574 132.163C87.3751 132.256 87.5339 132.303 87.7337 132.303C87.987 132.303 88.1726 132.203 88.2903 132.003C88.4081 131.803 88.4669 131.462 88.4669 130.981C88.3813 131.102 88.26 131.197 88.103 131.264C87.9496 131.329 87.7819 131.361 87.5999 131.361C87.368 131.361 87.1575 131.314 86.9684 131.222C86.7793 131.125 86.6294 130.984 86.5188 130.799C86.4118 130.61 86.3582 130.381 86.3582 130.114C86.3582 129.721 86.4724 129.409 86.7008 129.177C86.9327 128.942 87.2503 128.824 87.6534 128.824C88.1387 128.824 88.483 128.986 88.6864 129.311C88.8933 129.632 88.9968 130.126 88.9968 130.793C88.9968 131.254 88.9575 131.63 88.879 131.923C88.8041 132.215 88.6721 132.436 88.483 132.586C88.2939 132.736 88.0316 132.811 87.6963 132.811C87.3145 132.811 87.0201 132.711 86.8132 132.511C86.6062 132.312 86.4903 132.06 86.4653 131.757H87.0272ZM87.707 130.847C87.921 130.847 88.0887 130.781 88.21 130.649C88.3349 130.513 88.3974 130.335 88.3974 130.114C88.3974 129.867 88.3314 129.677 88.1993 129.541C88.0709 129.402 87.8943 129.332 87.6695 129.332C87.4447 129.332 87.2663 129.404 87.1343 129.546C87.0058 129.685 86.9416 129.869 86.9416 130.098C86.9416 130.315 87.0041 130.495 87.1289 130.638C87.2574 130.777 87.4501 130.847 87.707 130.847Z" fill="#999999"/>
<path d="M44.4376 97.8893C44.4376 97.5315 44.4376 97.1737 44.4376 96.8159C44.4509 96.4581 44.4641 96.1069 44.4774 95.7623C44.4906 95.4177 44.5039 95.0997 44.5171 94.8081C44.3184 94.9274 44.1262 95.04 43.9407 95.1461C43.7551 95.2388 43.5563 95.3448 43.3443 95.4641L41.8732 96.2394L40.7799 94.2913L44.875 92.1443H46.8827V106.338H44.4376V97.8893ZM41.6148 106.338V104.628L44.4575 104.37H46.8827L49.6658 104.628V106.338H41.6148ZM56.6952 98.5652C56.2181 98.5652 55.8337 98.4327 55.5422 98.1677C55.2506 97.8893 55.1048 97.4851 55.1048 96.955C55.1048 96.3984 55.244 95.9942 55.5223 95.7424C55.8139 95.4906 56.2048 95.3647 56.6952 95.3647C57.1855 95.3647 57.5698 95.4973 57.8481 95.7623C58.1264 96.0274 58.2656 96.4249 58.2656 96.955C58.2656 97.4719 58.1198 97.8695 57.8283 98.1478C57.55 98.4261 57.1723 98.5652 56.6952 98.5652ZM56.6952 106.537C56.2048 106.537 55.8139 106.404 55.5223 106.139C55.244 105.861 55.1048 105.463 55.1048 104.946C55.1048 104.39 55.244 103.986 55.5223 103.734C55.8139 103.469 56.2048 103.336 56.6952 103.336C57.1855 103.336 57.5698 103.469 57.8481 103.734C58.1264 103.999 58.2656 104.403 58.2656 104.946C58.2656 105.45 58.1198 105.841 57.8283 106.119C57.55 106.398 57.1723 106.537 56.6952 106.537ZM68.237 106.537C67.1106 106.537 66.1829 106.252 65.454 105.682C64.7251 105.099 64.1884 104.264 63.8438 103.177C63.4992 102.077 63.327 100.745 63.327 99.1815C63.327 97.6177 63.4926 96.299 63.8239 95.2256C64.1685 94.1521 64.6986 93.3371 65.4142 92.7805C66.1299 92.2239 67.0509 91.9455 68.1774 91.9455C69.3171 91.9455 70.2514 92.2305 70.9803 92.8003C71.7092 93.3702 72.246 94.2051 72.5905 95.3051C72.9351 96.3918 73.1074 97.7237 73.1074 99.3008C73.1074 100.387 73.0212 101.381 72.849 102.283C72.6767 103.171 72.3984 103.933 72.014 104.569C71.643 105.192 71.1394 105.675 70.5032 106.02C69.8804 106.364 69.125 106.537 68.237 106.537ZM66.1299 104.27L64.7384 103.078L70.0659 94.172L71.3779 95.5834L66.1299 104.27ZM68.1973 104.489C69.125 104.489 69.781 104.065 70.1653 103.217C70.5496 102.355 70.7418 101.057 70.7418 99.3206C70.7418 98.2074 70.6557 97.2598 70.4834 96.4779C70.3243 95.6828 70.0593 95.0798 69.6882 94.669C69.3304 94.2449 68.8334 94.0328 68.1973 94.0328C67.5877 94.0328 67.0973 94.2316 66.7263 94.6292C66.3684 95.0268 66.1034 95.6165 65.9311 96.3984C65.7721 97.1671 65.6925 98.1345 65.6925 99.3008C65.6925 101.01 65.8781 102.302 66.2492 103.177C66.6202 104.052 67.2696 104.489 68.1973 104.489ZM79.7591 106.537C78.6326 106.537 77.7049 106.252 76.976 105.682C76.2471 105.099 75.7104 104.264 75.3658 103.177C75.0213 102.077 74.849 100.745 74.849 99.1815C74.849 97.6177 75.0146 96.299 75.3459 95.2256C75.6905 94.1521 76.2206 93.3371 76.9363 92.7805C77.6519 92.2239 78.573 91.9455 79.6994 91.9455C80.8391 91.9455 81.7735 92.2305 82.5024 92.8003C83.2312 93.3702 83.768 94.2051 84.1125 95.3051C84.4571 96.3918 84.6294 97.7237 84.6294 99.3008C84.6294 100.387 84.5433 101.381 84.371 102.283C84.1987 103.171 83.9204 103.933 83.5361 104.569C83.165 105.192 82.6614 105.675 82.0253 106.02C81.4024 106.364 80.647 106.537 79.7591 106.537ZM77.6519 104.27L76.2604 103.078L81.5879 94.172L82.8999 95.5834L77.6519 104.27ZM79.7193 104.489C80.647 104.489 81.303 104.065 81.6873 103.217C82.0716 102.355 82.2638 101.057 82.2638 99.3206C82.2638 98.2074 82.1777 97.2598 82.0054 96.4779C81.8463 95.6828 81.5813 95.0798 81.2102 94.669C80.8524 94.2449 80.3554 94.0328 79.7193 94.0328C79.1097 94.0328 78.6193 94.2316 78.2483 94.6292C77.8904 95.0268 77.6254 95.6165 77.4531 96.3984C77.2941 97.1671 77.2146 98.1345 77.2146 99.3008C77.2146 101.01 77.4001 102.302 77.7712 103.177C78.1422 104.052 78.7916 104.489 79.7193 104.489ZM91.2612 98.5652C90.7841 98.5652 90.3998 98.4327 90.1082 98.1677C89.8167 97.8893 89.6709 97.4851 89.6709 96.955C89.6709 96.3984 89.81 95.9942 90.0883 95.7424C90.3799 95.4906 90.7708 95.3647 91.2612 95.3647C91.7515 95.3647 92.1359 95.4973 92.4142 95.7623C92.6925 96.0274 92.8316 96.4249 92.8316 96.955C92.8316 97.4719 92.6858 97.8695 92.3943 98.1478C92.116 98.4261 91.7383 98.5652 91.2612 98.5652ZM91.2612 106.537C90.7708 106.537 90.3799 106.404 90.0883 106.139C89.81 105.861 89.6709 105.463 89.6709 104.946C89.6709 104.39 89.81 103.986 90.0883 103.734C90.3799 103.469 90.7708 103.336 91.2612 103.336C91.7515 103.336 92.1359 103.469 92.4142 103.734C92.6925 103.999 92.8316 104.403 92.8316 104.946C92.8316 105.45 92.6858 105.841 92.3943 106.119C92.116 106.398 91.7383 106.537 91.2612 106.537ZM102.803 106.537C101.677 106.537 100.749 106.252 100.02 105.682C99.2911 105.099 98.7544 104.264 98.4098 103.177C98.0653 102.077 97.893 100.745 97.893 99.1815C97.893 97.6177 98.0586 96.299 98.39 95.2256C98.7345 94.1521 99.2646 93.3371 99.9803 92.7805C100.696 92.2239 101.617 91.9455 102.743 91.9455C103.883 91.9455 104.817 92.2305 105.546 92.8003C106.275 93.3702 106.812 94.2051 107.157 95.3051C107.501 96.3918 107.673 97.7237 107.673 99.3008C107.673 100.387 107.587 101.381 107.415 102.283C107.243 103.171 106.964 103.933 106.58 104.569C106.209 105.192 105.705 105.675 105.069 106.02C104.446 106.364 103.691 106.537 102.803 106.537ZM100.696 104.27L99.3044 103.078L104.632 94.172L105.944 95.5834L100.696 104.27ZM102.763 104.489C103.691 104.489 104.347 104.065 104.731 103.217C105.116 102.355 105.308 101.057 105.308 99.3206C105.308 98.2074 105.222 97.2598 105.049 96.4779C104.89 95.6828 104.625 95.0798 104.254 94.669C103.896 94.2449 103.399 94.0328 102.763 94.0328C102.154 94.0328 101.663 94.2316 101.292 94.6292C100.934 95.0268 100.669 95.6165 100.497 96.3984C100.338 97.1671 100.259 98.1345 100.259 99.3008C100.259 101.01 100.444 102.302 100.815 103.177C101.186 104.052 101.836 104.489 102.763 104.489ZM114.325 106.537C113.199 106.537 112.271 106.252 111.542 105.682C110.813 105.099 110.276 104.264 109.932 103.177C109.587 102.077 109.415 100.745 109.415 99.1815C109.415 97.6177 109.581 96.299 109.912 95.2256C110.257 94.1521 110.787 93.3371 111.502 92.7805C112.218 92.2239 113.139 91.9455 114.265 91.9455C115.405 91.9455 116.339 92.2305 117.068 92.8003C117.797 93.3702 118.334 94.2051 118.679 95.3051C119.023 96.3918 119.195 97.7237 119.195 99.3008C119.195 100.387 119.109 101.381 118.937 102.283C118.765 103.171 118.486 103.933 118.102 104.569C117.731 105.192 117.227 105.675 116.591 106.02C115.968 106.364 115.213 106.537 114.325 106.537ZM112.218 104.27L110.826 103.078L116.154 94.172L117.466 95.5834L112.218 104.27ZM114.285 104.489C115.213 104.489 115.869 104.065 116.253 103.217C116.638 102.355 116.83 101.057 116.83 99.3206C116.83 98.2074 116.744 97.2598 116.571 96.4779C116.412 95.6828 116.147 95.0798 115.776 94.669C115.418 94.2449 114.921 94.0328 114.285 94.0328C113.676 94.0328 113.185 94.2316 112.814 94.6292C112.456 95.0268 112.191 95.6165 112.019 96.3984C111.86 97.1671 111.781 98.1345 111.781 99.3008C111.781 101.01 111.966 102.302 112.337 103.177C112.708 104.052 113.358 104.489 114.285 104.489Z" fill="white"/>
<rect x="122.621" y="26.9961" width="29.2332" height="12.2332" rx="6.11659" fill="white"/>
<path d="M133.057 30.8936V34.6133H132.447V32.0657L131.312 34.6133H130.889L129.749 32.0657V34.6133H129.139V30.8936H129.797L131.103 33.8105L132.404 30.8936H133.057ZM134.469 31.386V32.4778H135.753V32.9756H134.469V34.1155H135.914V34.6133H133.859V30.8883H135.914V31.386H134.469ZM140.583 30.8936V34.6133H139.973V32.0657L138.838 34.6133H138.416L137.276 32.0657V34.6133H136.665V30.8936H137.324L138.63 33.8105L139.93 30.8936H140.583ZM143.082 34.6507C142.736 34.6507 142.416 34.5705 142.124 34.4099C141.835 34.2458 141.605 34.0192 141.433 33.7302C141.266 33.4376 141.182 33.1094 141.182 32.7454C141.182 32.3815 141.266 32.055 141.433 31.766C141.605 31.477 141.835 31.2522 142.124 31.0917C142.416 30.9275 142.736 30.8455 143.082 30.8455C143.431 30.8455 143.751 30.9275 144.04 31.0917C144.332 31.2522 144.562 31.477 144.73 31.766C144.898 32.055 144.982 32.3815 144.982 32.7454C144.982 33.1094 144.898 33.4376 144.73 33.7302C144.562 34.0192 144.332 34.2458 144.04 34.4099C143.751 34.5705 143.431 34.6507 143.082 34.6507ZM143.082 34.1209C143.328 34.1209 143.547 34.0656 143.74 33.955C143.933 33.8408 144.082 33.6802 144.19 33.4733C144.3 33.2628 144.355 33.0202 144.355 32.7454C144.355 32.4707 144.3 32.2298 144.19 32.0229C144.082 31.816 143.933 31.6572 143.74 31.5466C143.547 31.436 143.328 31.3807 143.082 31.3807C142.835 31.3807 142.616 31.436 142.423 31.5466C142.231 31.6572 142.079 31.816 141.968 32.0229C141.861 32.2298 141.808 32.4707 141.808 32.7454C141.808 33.0202 141.861 33.2628 141.968 33.4733C142.079 33.6802 142.231 33.8408 142.423 33.955C142.616 34.0656 142.835 34.1209 143.082 34.1209Z" fill="#151516"/>
</g>
<rect x="1" y="0.5" width="159" height="341" rx="7.38117" stroke="white" stroke-opacity="0.2"/>
<defs>
<clipPath id="clip0_2089_14110">
<rect x="1.5" y="1" width="158" height="340" rx="6.88117" fill="white"/>
</clipPath>
<clipPath id="clip1_2089_14110">
<rect width="9.17489" height="9.17489" fill="white" transform="translate(123.067 309.123)"/>
</clipPath>
</defs>
</svg>
